<?xml version="1.0" standalone="yes"?>
<svg width="1200" height="1200">
<path style="fill:#ffffff; stroke:none;" d="M0 0L0 1200L1200 1200L1200 0L0 0z"/>
<path style="fill:#711abc; stroke:none;" d="M503 357L557 387L557 328C573.979 337.037 590.471 347.357 607 357.201C612.894 360.711 622.105 368.679 629 369.226C636.453 369.818 648.663 359.102 655 355.424C676.978 342.669 698.569 328.939 721 317L694 383C710.578 383.011 727.603 386.908 744 389.271C749.932 390.126 758.941 393.213 764.79 391.667C771.046 390.014 776.275 375.287 779.281 370C791.378 348.723 806.548 327.583 816 305C762.21 279.887 711.497 245.102 660 215.579C646.696 207.952 633.319 200.452 620 192.85C616.111 190.63 608.751 184.381 604.104 185.022C600.171 185.564 597.864 192.014 596.15 195C590.385 205.042 584.555 215.07 578.6 225C561.13 254.133 544.582 283.815 527.201 313C519.549 325.847 505.832 342.312 503 357z"/>
<path style="fill:#55149c; stroke:none;" d="M719 250L719 251L788 289.85L817 305L817 335C817 338.84 816.03 344.275 818.603 347.482C826.792 357.687 843.294 357.846 855 359.579C887.036 364.321 919.726 370.453 952 373C946.49 367.43 937.803 364.034 931 360.15L890 336.719C855.644 317.186 821.265 297.693 787 278C765.293 265.524 744.903 250.535 719 250z"/>
<path style="fill:#af8cce; stroke:none;" d="M816 305L816 347L817 347C817 335.043 820.611 315.988 816 305z"/>
<path style="fill:#d1b4e3; stroke:none;" d="M815 307C809.578 315.858 804.587 324.99 799.421 334C797.293 337.712 793.328 342.51 793.604 347C794.493 361.478 811.726 374.061 815.502 388C818.241 398.113 816 411.537 816 422L816 494C816 508.75 819.561 528.705 815.682 542.907C814.057 548.859 803.204 552.822 798 555L798 448C784.114 453.084 770.861 462.953 758 470.281C754.105 472.5 745.689 475.573 744.318 480.213C742.198 487.388 744 497.529 744 505L744 559C744 572.158 747.389 583.755 735 591L735 592C748.529 591.961 760.462 583.638 773 579.339C778.204 577.555 782.055 582.141 787 580.478C802.838 575.153 816.474 562.464 832 556L832 554L818.028 544.79L817 532L817 502L817 399L818 347C810.42 336.995 819.783 318.398 815 307z"/>
<path style="fill:#c4a5dc; stroke:none;" d="M670 346C673.455 353.409 682.591 362.545 690 366L721 317L670 346z"/>
<path style="fill:#5f16a8; stroke:none;" d="M719 320C700.883 346.855 683.767 374.544 666.576 402C659.764 412.879 647.949 425.45 645 438C662.625 447.381 679.659 457.951 697 467.85C701.361 470.339 710.619 478.163 715.815 477.122C721.41 476.001 726.658 461.604 729.281 457C741.177 436.121 757.783 414.571 766 392L694 383L712.424 339L719 320z"/>
<path style="fill:#1bb0d4; stroke:none;" d="M332 486L331 478C296.932 477.996 258.62 468.022 232 446.076C217.101 433.794 205.109 415.012 209.899 395C214.188 377.081 228.62 363.181 244 354.014C272.852 336.817 306.823 330.947 340 331C374.49 331.055 412.743 340.987 440 362.666C453.737 373.592 466.367 391.482 463.7 410C460.987 428.833 446.465 444.01 431 453.772C402.395 471.827 368.367 478 335 478L333 486C369.411 486 407.387 480.565 439 461.189C454.972 451.4 469.967 437.657 475.079 419C481.758 394.632 469.453 372.629 451 357.286C421.289 332.582 376.844 323.061 339 323C303.754 322.943 266.953 329.013 236 346.72C217.79 357.138 201.18 372.729 196.669 394C191.588 417.961 205.559 439.901 224 453.869C253.971 476.571 294.904 486 332 486z"/>
<path style="fill:#874dbf; stroke:none;" d="M557 328L557 387L558 387C558 368.384 554.686 346.119 559 328L557 328z"/>
<path style="fill:#b593d4; stroke:none;" d="M558 329L558 387C540.123 378.654 522.172 361.397 503 357L503 448L516.972 444.411L518 427L518 380C528.054 384.699 537.393 391.171 547 396.716C552.002 399.604 557.067 401.499 556 408C560.819 414.361 558 429.177 558 437C558 462.577 561.948 492.017 556 517L558.603 533.79L570 542L570 427L582 433L585 420L571.028 410.895L570 393L570 350L581 355L584 343L558 329z"/>
<path style="fill:#ffffff; stroke:none;" d="M332 476C342.757 481.74 361.443 477.139 373 475.246C411.704 468.907 479.303 440.867 461.301 390C453.365 367.577 431.104 353.268 410 344.8C365.663 327.01 311.862 325.698 267 342.576C243.076 351.577 216.291 367.29 209.899 394C198.923 439.862 255.512 465.219 291 473.349C300.578 475.543 323.692 482.294 332 476z"/>
<path style="fill:#1bb0d4; stroke:none;" d="M331 471L331 466L334 466C335.651 475.895 365.408 468.918 373 467.4C402.407 461.519 448.316 445.225 449.961 409C451.303 379.44 427.159 360.796 402 350.604C355.157 331.629 290.569 332.934 248 362.029C241.874 366.216 236.392 371.067 231.9 377C205.654 411.664 238.328 446.188 271 458.938C290.903 466.705 310.46 467.187 331 471z"/>
<path style="fill:#c1a1da; stroke:none;" d="M583 344L580 356L617 377L620 364L583 344z"/>
<path style="fill:#ffffff; stroke:none;" d="M320 345.424C305.247 347.367 290.936 349.683 277 355.204C247.979 366.701 217.258 396.4 240.761 428C244.688 433.28 249.697 437.966 255 441.841C282.277 461.774 322.112 467.648 355 463.714C368.488 462.101 382.361 459.5 395 454.396C423.188 443.012 455.644 413.835 432.51 382C428.928 377.071 424.835 372.934 420 369.236C393.306 348.82 353.031 341.075 320 345.424z"/>
<path style="fill:#ac88cf; stroke:none;" d="M629 429L630 429L630 407C636.229 413.229 643.331 423.567 652 426L690 366C683.436 361.376 677.593 350.768 670 348.252C664.709 346.5 654.434 355.159 650 357.799C644.29 361.2 633.703 364.838 630.028 370.529C627.475 374.48 629 382.467 629 387L629 429z"/>
<path style="fill:#ba99d7; stroke:none;" d="M792 347L774.15 378L767.499 392L774 406L776 406L796 369L797 369L797 434L798 434L798 431L815 458L816 458C816 435.893 819.918 409.676 815.725 388C813.503 376.513 800.278 355.166 792 347z"/>
<path style="fill:#dcc6ea; stroke:none;" d="M817 348L817 431C830.643 414.244 832 397.645 832 377C832 362.764 833.725 351.928 817 348z"/>
<path style="fill:#d1bbe4; stroke:none;" d="M570 350L570 412L571 412C571 392.469 567.475 369.005 572 350L570 350z"/>
<path style="fill:#f1e8f6; stroke:none;" d="M571 351L571 393L571.603 411.787L583 419.8L616 438L616 395L615.397 377.39L604 369.576L571 351z"/>
<path style="fill:#1bb0d4; stroke:none;" d="M323 353.424C310.692 355.045 298.655 356.628 287 361.203C260.542 371.589 233.875 397.188 254.927 426C258.491 430.877 263.042 434.589 268 437.971C293.942 455.668 328.614 458.811 359 454.718C390.509 450.473 446.443 423.417 418.211 384C399.241 357.513 353.415 349.419 323 353.424z"/>
<path style="fill:#9f79c8; stroke:none;" d="M832 356L832 496L832 536C832 541.136 833.473 549.015 831.397 553.787C828.973 559.359 816.164 563.651 811 566.576C792.324 577.151 773.474 587.472 755 598.397C747.251 602.979 733.337 606.72 733 617L821 567.694L850 552L850 551C847.055 547.112 848 541.716 848 537L848 507L848 464C848 458.585 846.435 450.242 848.603 445.21C851.551 438.369 866.771 432.738 873 429C895.225 415.664 917.122 401.177 940 389L940 497C955.743 492.368 952 478.427 952 465C952 434.295 953 403.647 953 373C913.071 369.849 871.391 363.34 832 356z"/>
<path style="fill:#ffffff; stroke:none;" d="M333 357.439C318.916 358.943 305.509 359.774 292 364.695C267.689 373.551 241.603 397.982 261.681 424C264.872 428.135 268.735 431.566 273 434.56C296.01 450.714 326.877 453.586 354 450.831C364.288 449.786 374.386 446.914 384 443.189C390.475 440.68 396.428 437.404 402 433.24C422.596 417.846 422.405 393.496 403 377.326C385.649 362.866 355.388 355.048 333 357.439z"/>
<path style="fill:#d1b4e3; stroke:none;" d="M575 359L575 394L575.603 408.61L585 415.397L612 430L612 425C604.033 422.083 585.582 413.907 581.028 406.621C578.977 403.341 580 397.702 580 394C580 383.331 578.521 371.415 581 361L575 359z"/>
<path style="fill:#3861b7; stroke:none;" d="M580 362L580 393C580 396.977 578.905 402.936 580.603 406.621C583.877 413.724 603.807 422.367 611 425L610 406L609 406L609 420C602.458 417.181 585.317 410.236 583.318 402.907C581.023 394.494 582.858 382.717 583.005 374.001C583.095 368.615 586.315 364.312 580 362z"/>
<path style="fill:#4074c8; stroke:none;" d="M585 364C586.636 374.056 601.505 374.668 607.397 381.61C611.816 386.817 609.455 404.097 610 411L611 411C611 403.118 614.235 386.102 609.972 379.39C605.825 372.859 591.774 367.605 585 364z"/>
<path style="fill:#d3b7e4; stroke:none;" d="M619 365L616.054 381L616 438L585 421L582 434C589.909 438.841 597.958 443.532 606 448.15C609.391 450.097 614.536 451.965 615.682 456.104C617.87 464.005 616 474.809 616 483L616 540C616 555.998 612.205 568.763 629 576L629 416C629 402.39 635.702 368.833 619 365z"/>
<path style="fill:#23d6eb; stroke:none;" d="M583 367L592 396C595.859 394.28 607.818 387.149 607.079 382.096C606.258 376.487 587.922 368.802 583 367z"/>
<path style="fill:#d1b4e3; stroke:none;" d="M796 369L743 465C756.039 460.255 767.97 451.139 780 444.281C784.519 441.704 792.968 438.674 795.972 434.363C798.578 430.624 797 422.373 797 418C797 404.224 801.306 381.645 796 369z"/>
<path style="fill:#1cb4d6; stroke:none;" d="M583 370C583 379.479 579.767 396.008 583.603 404.674C586.449 411.103 602.545 418.101 609 420L609 381L608 381L592 396L583 370z"/>
<path style="fill:#1bb0d4; stroke:none;" d="M335 376L335 386L340 386C339.996 381.151 340.61 376.936 335 376z"/>
<path style="fill:#f1e8f6; stroke:none;" d="M518 380L518 460L518.603 493.671L528 500.579L557 516C555.827 500.774 528.945 502.189 523.603 489.79C520.316 482.16 523 468.28 523 460L523 388L557 407C556.516 400.727 551.994 399.069 547 396.139C537.787 390.734 528.208 383.232 518 380z"/>
<path style="fill:#789bd6; stroke:none;" d="M611 380L611 425L612 425C612 412.258 615.91 391.701 611 380z"/>
<path style="fill:#1bb0d4; stroke:none;" d="M305 384C307.768 389.045 313.321 391.77 319 391L319 389L305 384M356 389L356 391C361.197 392.001 367.245 389.176 369 384L356 389z"/>
<path style="fill:#f1e8f6; stroke:none;" d="M792 387C785.212 399.119 794.694 416.584 787.972 427.671C781.052 439.086 761.277 437.719 757 452L791.397 431.366L793 420L792 387z"/>
<path style="fill:#d1b4e3; stroke:none;" d="M523 388L523 463C523 469.978 520.079 485.516 524.028 491.39C529.387 499.363 548.327 506.951 557 511C555.935 497.207 532.323 498.485 527.603 486.896C524.599 479.518 527 466.931 527 459C527 437.338 522.984 411.071 528 390L523 388z"/>
<path style="fill:#1bb0d4; stroke:none;" d="M314 420C320.548 421.537 323.942 418.528 330 416.789C338.463 414.361 364.568 416.585 360.156 400.004C356.278 385.432 328.584 386.308 319.055 393.638C314.894 396.838 315.292 400.806 312.987 404.957C310.584 409.284 305.992 411.816 303.618 416.421C300.03 423.382 310.684 424.357 314 420z"/>
<path style="fill:#d1b4e3; stroke:none;" d="M849 551C856.075 548.156 853 532.532 853 526L853 474C853 466.38 851.307 456.455 853.318 449.093C855.135 442.441 868.466 437.52 874 434.2C894 422.2 913.88 407.872 935 398L935 501C943.316 495.801 940 480.729 940 472L940 389C916.764 397.507 894.24 415.656 873 428.4C866.88 432.072 852.464 437.393 849.603 444.185C846.151 452.383 849 467.126 849 476L849 551z"/>
<path style="fill:#5f95d1; stroke:none;" d="M527 391L527 489L528 489L528 421L527 391z"/>
<path style="fill:#3d70c3; stroke:none;" d="M528 391L528 462C528 468.771 525.191 483.68 529.028 489.39C533.693 496.334 549.394 502.817 557 506L557 436C557 428.709 559.705 414.599 555.972 408.21C551.743 400.971 535.547 394.252 528 391z"/>
<path style="fill:#9f79c8; stroke:none;" d="M766 392L733.397 449L717.128 478L717 517L717 601C723.947 598.472 738.686 592.514 742.972 586.363C746.723 580.981 744 566.441 744 560L744 504C744 497.299 741.914 486.404 744.603 480.213C746.191 476.558 751.765 474.52 755 472.603C764.075 467.225 780.904 461.753 787.353 453.39C790.821 448.894 784.887 442.341 779.985 444.013C767.13 448.398 755.058 458.655 743 465L765.576 425L774.216 407L766 392z"/>
<path style="fill:#799bd1; stroke:none;" d="M788 394L788 429L789 429L788 394z"/>
<path style="fill:#20c9e3; stroke:none;" d="M530 396L530 481C540.797 468.763 544.436 445.062 550.85 430C552.969 425.025 557.924 416.938 555.396 411.379C552.564 405.152 536.303 397.995 530 396z"/>
<path style="fill:#2c4da3; stroke:none;" d="M787 396L761 444C767.911 441.967 783.222 435.154 786.972 428.787C790.386 422.991 789.547 402.069 787 396z"/>
<path style="fill:#59098b; stroke:none;" d="M952 397C952.135 408.418 965.396 411.838 974 417C988.189 425.513 1002.79 433.334 1017 441.799C1025.54 446.883 1034.47 451.982 1037.89 462C1044.59 481.615 1017.45 495.913 1004 503.231C969.903 521.785 936.678 542.12 903 561.427C888.901 569.51 874.912 579.574 860 586L860 587C877.921 584.365 893.482 571.524 909 562.862C941.247 544.861 973.05 525.967 1005 507.424C1019.02 499.289 1044.14 489.563 1046 471L1048 472C1048 440.482 1007.43 428.282 984 414.397C974.022 408.484 963.151 400.28 952 397z"/>
<path style="fill:#f1e8f6; stroke:none;" d="M935 501L935 398C927.189 400.872 930 413.1 930 420L930 480C930 487.002 927.387 497.769 935 501z"/>
<path style="fill:#1bb0d4; stroke:none;" d="M365 401L365 404L382 404L382 401L365 401z"/>
<path style="fill:#45108a; stroke:none;" d="M854 543C873.509 536.826 892.258 521.035 910 510.85C915.253 507.835 926.899 503.589 929.397 497.79C932.582 490.395 930 477.021 930 469L930 401C910.334 407.225 890.704 423.578 873 434.2C867.849 437.29 856.977 441.276 854.603 447.104C851.5 454.725 854 467.804 854 476L854 543z"/>
<path style="fill:#ebdef3; stroke:none;" d="M831 404C828.465 414.026 819.555 421.851 817.39 432C812.501 454.916 817 483.535 817 507C817 518.154 814.344 533.155 817.318 543.896C818.763 549.115 827.389 552.321 832 554L832 449C832 436.271 835.907 415.694 831 404z"/>
<path style="fill:#30054b; stroke:none;" d="M952 404C952 409.542 950.262 418.541 952.603 423.621C954.249 427.192 959.804 429.286 963 431.2C971.921 436.541 981.071 441.471 990 446.799C997.792 451.449 1013.28 457.203 1013.77 468C1014.08 474.794 1008.2 479.827 1003 483.085C990.281 491.045 976.903 497.953 964 505.603C910.207 537.498 853.195 565.577 801 600L801 601C821.523 598.037 840.185 582.512 858 572.424C895.812 551.014 933.684 529.47 971 507.201C984.703 499.023 1018.17 487.95 1018.78 469C1018.99 462.303 1013.97 456.378 1009 452.529C996.687 442.989 981.356 436.409 968 428.4C962.114 424.87 954.165 422.48 953 415C969.629 425.967 987.678 435.427 1005 445.281C1012.77 449.699 1022.89 455.229 1024.57 465C1028.06 485.26 995.504 497.686 982 505.427C931.991 534.098 882.884 564.917 832 592L832 593C858.761 590.814 880.476 575.168 903 562.012C934.229 543.771 965.925 526.304 997 507.799C1012.43 498.612 1042.43 486.987 1038.67 464C1036.76 452.379 1026.14 446.639 1017 441.201C995.62 428.475 974.015 415.596 952 404z"/>
<path style="fill:#1492c1; stroke:none;" d="M785 405L769 436C783.204 431.822 791.158 419.675 785 405z"/>
<path style="fill:#9f79c8; stroke:none;" d="M630 407L630 576L646 568L646 567C640.277 559.445 644 539.386 644 530L644 469C644 459.634 642.187 448.091 644.558 439C645.787 434.285 649.283 430.529 651 426L630 407z"/>
<path style="fill:#797dcb; stroke:none;" d="M557 408L557 506L558 506L558 438L557 408z"/>
<path style="fill:#1bb0d4; stroke:none;" d="M356 414L356 416L369 421C367.28 415.487 361.488 412.675 356 414z"/>
<path style="fill:#ffffff; stroke:none;" d="M306 415L307 416L306 415z"/>
<path style="fill:#1f0d3d; stroke:none;" d="M953 415C953.588 422.725 961.051 424.832 967 428.4C980.839 436.699 997.906 443.459 1010 454.185C1015.9 459.426 1020.46 466.092 1017.18 474C1011.54 487.574 992.058 494.597 980 501.424C947.851 519.628 916.26 538.853 884 556.86C777.473 616.324 673.381 680.138 567 739.861C542.516 753.606 518.245 767.85 494 782.012C476.566 792.195 458.983 804.067 438 803.999C412.078 803.916 389.574 785.79 368 773.421C323.255 747.769 278.473 722.131 234 696.011C219.167 687.299 201.055 680.022 188.001 668.79C183.158 664.624 177.145 657.978 178.551 651C181.67 635.517 205.768 626.832 218 619.85C256.056 598.127 294.627 576.873 332 554L331 549C290.857 570.144 252.56 594.93 213 617.139C199.585 624.67 176.387 633.282 172.529 650C170.595 658.38 174.685 665.428 181.001 670.671C193.671 681.189 210.763 688.313 225 696.576C271.559 723.598 317.842 751.346 365 777.306C383.851 787.683 404.679 805.947 427 806.961C457.874 808.362 478.984 796.155 505 781.424C528.781 767.959 552.29 754.021 576 740.427C680.178 680.702 783.662 619.729 888 560.281C920.418 541.81 952.317 522.297 985 504.306C998.497 496.875 1018.78 488.978 1023.78 473C1026.61 463.968 1022.42 456.037 1015 450.634C996.603 437.236 973.614 424.624 953 415z"/>
<path style="fill:#ffffff; stroke:none;" d="M311 418L312 419L311 418z"/>
<path style="fill:#1bb1d4; stroke:none;" d="M555 418C550.467 434.572 542.388 450.947 536.189 467C534.307 471.874 528.267 481.372 530.608 486.61C533.417 492.896 549.821 499.414 556 502L556 444L555 418z"/>
<path style="fill:#ffffff; stroke:none;" d="M313 419L314 420L313 419z"/>
<path style="fill:#7e20b4; stroke:none;" d="M952 425L952 491L953 491L953 440L973 451.939L980.27 458.105L971.333 474L943 517C962.584 512.519 983.622 494.918 1001 484.846C1007.73 480.948 1014.77 475.773 1013.85 467C1013.08 459.6 1005.8 455.341 1000 452C984.933 443.315 968.556 430.241 952 425z"/>
<path style="fill:#d7c2e7; stroke:none;" d="M570 427L570 542L571 542L571 466L572 427L570 427z"/>
<path style="fill:#f1e8f6; stroke:none;" d="M571 428L571 508L571.603 541.621L583 549.603L616 568L616 488L615.397 454.379L604 446.397L571 428z"/>
<path style="fill:#c5a9dd; stroke:none;" d="M629 429L629 576L630 576L630 473C630 460.532 633.807 440.456 629 429z"/>
<path style="fill:#af8cd1; stroke:none;" d="M798 431L783 442L789 453L798 448L798 555C803.013 553.553 813.122 549.758 815.397 544.671C818.629 537.441 816 523.89 816 516C816 492.637 820.404 466.627 808.579 446C805.667 440.922 803.107 434.121 798 431z"/>
<path style="fill:#892cc3; stroke:none;" d="M502 432C464.892 453.884 427.376 475.151 390 496.579C379.316 502.704 356.048 510.309 356 524C371.959 517.32 387.085 506.771 402 498.011C424.894 484.565 448.188 471.786 471 458.201C478.986 453.445 506.872 443.631 502 432z"/>
<path style="fill:#e1ceec; stroke:none;" d="M575 436L575 539L576 539L576 467L575 436z"/>
<path style="fill:#d1b4e3; stroke:none;" d="M576 436L576 510L577.028 538.79L587 545.85L612 560C610.923 546.368 587.189 546.245 581.028 535.787C578.073 530.771 580 520.677 580 515L580 462C580 454.684 582.981 440.282 576 436z"/>
<path style="fill:#a56ef4; stroke:none;" d="M126 450C135.759 454.205 140.863 458.585 150.374 451.795C152.648 450.171 157.188 448.856 156.248 445.167C152.546 430.632 130.901 444.24 126 450z"/>
<path style="fill:#406bc4; stroke:none;" d="M580 438L580 509C580 515.991 577.221 530.616 581.028 536.61C585.383 543.469 603.341 551.747 611 554L611 484C611 476.848 613.736 462.537 609.972 456.329C605.435 448.845 587.859 441.674 580 438z"/>
<path style="fill:#c5a6dd; stroke:none;" d="M644 438L644 567L645 567L645 485L657 484L657 459C664.641 461.785 672.357 460.417 680 458C671.153 450.593 655.242 440.578 644 438z"/>
<path style="fill:#531787; stroke:none;" d="M334 542L331 539C309.831 548.122 290.029 562.307 270 573.719C258.969 580.004 250 582.32 250 596C270.033 585.448 289.335 573.375 309 562.15C316.683 557.765 328.542 553.605 332 545L334 547C348.976 541.517 363.146 530.758 377 522.85C406.416 506.059 435.794 489.164 465 472.011C478.245 464.232 502.998 457.066 503 440C487.762 444.824 472.876 456.624 459 464.579C430.301 481.032 401.422 497.274 373 514.201C363.736 519.718 354.354 525.059 345 530.421C339.704 533.457 334.513 535.342 334 542z"/>
<path style="fill:#661ea3; stroke:none;" d="M953 440L953 491C946.703 492.479 942.115 497.57 936 499.401C909.792 507.249 879.84 524.939 857.148 541.619C853.764 544.106 853.512 548.369 849.941 550.79C813.627 575.418 771.659 591.823 735 616L735 617C754.485 614.363 779.708 608.965 798 601.707C810.257 596.843 821.505 588.277 833 581.86C869.989 561.213 905.729 536.1 944 518L952.667 503L972 474L980.978 458.105L974 451.939L953 440z"/>
<path style="fill:#ffffff; stroke:none;" d="M141 444L141 445L152 447L152 445C147.903 442.719 145.395 442.241 141 444z"/>
<path style="fill:#b897d6; stroke:none;" d="M848 443L848 551L849 551L849 476L848 443z"/>
<path style="fill:#1cb7d8; stroke:none;" d="M583 444L583 485L607 467C602.642 482.968 595.146 498.633 589 514C586.91 519.225 581.435 528.147 583.618 533.895C586.18 540.642 602.632 547.256 609 550L609 486C609 478.71 611.459 466.035 608.397 459.379C605.428 452.927 589.489 446.054 583 444z"/>
<path style="fill:#7e98cb; stroke:none;" d="M760.667 444.333L761.333 444.667L760.667 444.333z"/>
<path style="fill:#c5a6dd; stroke:none;" d="M517 445L503 448C503 466.062 497.029 487.364 518 494C518 480.212 522.309 457.652 517 445z"/>
<path style="fill:#ffffff; stroke:none;" d="M133 449C136.737 452.2 140.227 453.358 145 452L145 450C140.372 447.594 137.775 446.347 133 449z"/>
<path style="fill:#8b62b6; stroke:none;" d="M853 446L853 549L854 549L854 477L853 446z"/>
<path style="fill:#1f0d3d; stroke:none;" d="M502 450C460.343 475.495 417.372 499.129 375 523.421L346 540.15C340.593 543.237 335.515 545.234 335 552C379.812 531.078 421.992 501.747 465 477.281C475.025 471.578 485.067 465.852 495 459.989C498.952 457.657 503.965 455.198 502 450z"/>
<path style="fill:#a56ef4; stroke:none;" d="M144 459L144 460L167 456C158.056 449.41 152.589 453.935 144 459M171 455L171 457L177 457L177 455L171 455z"/>
<path style="fill:#3d065f; stroke:none;" d="M502 455L335 552L335 547L334 547C333.139 558.178 309.802 566.181 301 571.397C269.553 590.032 237.407 607.496 206 626.201C195.792 632.28 177.164 639.313 178.17 654C179.166 668.543 197.376 675.308 208 681.603C239.45 700.24 271.382 718.074 303 736.424C329.975 752.08 356.891 767.859 384 783.281C399.857 792.301 415.128 803.133 434 803.961C456.799 804.961 475.056 793.806 494 782.603C511.876 772.032 529.926 761.658 548 751.424C635.625 701.809 724.117 652.573 810 600L810 599C795.743 601.058 784.284 609.446 772 616.576C753.679 627.208 735.231 637.609 717 648.397C656.428 684.237 595.039 718.813 534 753.85C502.529 771.915 468.88 800.68 431 798.961C414.662 798.219 399.563 786.877 386 778.799C361.544 764.235 336.687 750.32 312 736.15C278.27 716.788 244.805 696.95 211 677.719C202.1 672.656 180.477 664.291 183.434 651C186.272 638.241 208.731 630.132 219 624.281C246.748 608.471 274.294 592.305 302 576.421C310.732 571.415 327.839 565.543 332 556C342.279 557.923 359.139 543.319 368 538.281C400.787 519.64 433.212 500.36 466 481.719C475.697 476.206 485.394 470.659 495 464.989C498.952 462.657 503.965 460.198 502 455z"/>
<path style="fill:#789bd6; stroke:none;" d="M611 456L611 521L610 555C614.556 551.019 612 536.833 612 531L612 479C612 472.049 613.701 462.436 611 456z"/>
<path style="fill:#a56ef4; stroke:none;" d="M155 464L155 466L172 460L172 458L155 464z"/>
<path style="fill:#e1ceed; stroke:none;" d="M791 457L792 492L792 559L793 559L793 483C793 476.864 795.762 461.161 791 457z"/>
<path style="fill:#d3b7e4; stroke:none;" d="M662 461L662 462L690 478L701.972 486.326L703 502L703 540L716 539L716 608C719.49 600.157 717 587.557 717 579L717 511C717 502.963 720.182 486.272 715.972 479.329C714.131 476.292 709.956 474.699 707 473C699.449 468.66 688.739 459.569 680 458.68C674.114 458.081 667.912 460.746 662 461z"/>
<path style="fill:#f1e8f6; stroke:none;" d="M789 458L789 529C789 535.978 791.783 550.633 787.972 556.61C780.258 568.708 753.301 568.472 749 583L779 566.86L790.972 559.366L792 532L792 458L789 458M657 459L657 539L657.742 572.815L669 581.14L703 599L703 517C703 509.172 706.214 492.192 701.972 485.518C699.409 481.485 693.015 479.141 689 476.85C678.76 471.004 668.255 462.562 657 459z"/>
<path style="fill:#9877bc; stroke:none;" d="M787 459L788 493L788 558L789 558L789 484C789 478.015 791.659 463.071 787 459z"/>
<path style="fill:#6e24b9; stroke:none;" d="M502 460L436 498.421L391 524L391 525C403.5 525.008 415.698 531.015 428 530.697C438.149 530.434 444.688 522.772 456 525.764C470.881 529.7 485.693 541.944 499 549.573C508.664 555.113 518.559 560.404 528 566.324C531.304 568.396 535.787 571.572 535.458 576C534.849 584.192 522.937 588.366 517 592L517 593C526.559 596.237 542.931 601.204 553 600.062C563.076 598.92 569.143 593.041 580 596.598C607.574 605.631 630.556 628.473 657 640.247C665.652 644.099 676.738 644.747 686 646.6C693.611 648.123 704.29 652.373 712 651.062C720.396 649.633 729.559 641.393 737 637.306C756.774 626.444 777.186 615.449 796 603L796 602C781.235 605.048 766.711 609.179 752 612.424C745.733 613.807 739.515 616.836 733 616.405C717.415 615.375 698.525 603.774 684 598C652.12 585.328 622.761 571.935 593 554.85C582.355 548.739 568.475 543.218 559.318 535.046C553.829 530.147 560.013 520.893 554.682 515.789C541.402 503.072 515.778 500.269 504.603 485.671C499.548 479.067 505.135 467.472 502 460z"/>
<path style="fill:#45108a; stroke:none;" d="M750 579L777 564.397L786.972 557.61L788 530L788 460L761 474.421L751.028 481.213L750 509L750 579z"/>
<path style="fill:#a56ef4; stroke:none;" d="M173 474L173 475C167.835 475.413 164.454 474.906 162 470L158 470C160.659 487.077 180.891 473.494 189 470L189 468L184 468C178.996 452.147 152.977 472.901 173 474z"/>
<path style="fill:#ffffff; stroke:none;" d="M169 471L181 470C178.857 463.485 170.793 465.078 169 471z"/>
<path style="fill:#815bdb; stroke:none;" d="M331 466L331 470L334 470L334 466L331 466z"/>
<path style="fill:#22d0e7; stroke:none;" d="M606 467L583.938 485.478L583 499L583 529L584 529L600.8 485L606 467z"/>
<path style="fill:#d1b4e3; stroke:none;" d="M662 467L662 542C662 548.978 659.079 564.516 663.028 570.39C668.586 578.659 688.87 587.179 698 591C696.885 576.89 671.48 577.87 666.603 565.896C663.599 558.518 666 545.931 666 538C666 516.338 661.984 490.071 667 469L662 467z"/>
<path style="fill:#a56ef4; stroke:none;" d="M179 478L179 480L198 477L198 479L188 484C194.882 490.499 210.627 474.859 195 474L195 473L201 469C193.426 467.265 185.656 474.892 179 478z"/>
<path style="fill:#7c1dc9; stroke:none;" d="M331 470L332 475L335 470L331 470z"/>
<path style="fill:#5e92d0; stroke:none;" d="M666 470L666 568L667 568L667 500L666 470z"/>
<path style="fill:#3d69c0; stroke:none;" d="M667 470L667 541C667 547.771 664.191 562.68 668.028 568.39C672.824 575.529 690.035 583.1 698 586L698 516C698 508.736 700.715 494.566 696.972 488.213C692.619 480.823 674.781 473.353 667 470z"/>
<path style="fill:#710ac6; stroke:none;" d="M1046 471L1046 475L1047 475L1046 471z"/>
<path style="fill:#2f0d5e; stroke:none;" d="M1047 472C1047 517.065 986.299 528.604 955.054 549.468C946.178 555.395 939.653 564.82 929.999 570.421C925.484 573.04 920.241 576.815 917 571C909.303 573.223 908.794 577.621 903.772 582.787C899.521 587.16 892.286 592.153 886.996 595.215C881.555 598.365 874.435 603.163 873 594L772 648.694L574 758.85L510 795.799L485.028 810.637L484 829L514 813.397L570 780.85L725 691.573L796 651L796 654L797 654C819.079 642.371 840.349 628.991 862 616.579C870.204 611.875 881.415 602.161 890.714 600.492C894.575 599.799 899.862 604.332 903 606.201C912.886 612.088 937.712 632.797 948 624C932.856 614.732 915.022 601.007 898 596L898 595L926 580.493L942 588.15L979 609L980 606L930 577C952.053 566.704 972.879 552.53 994 540.421C1008.04 532.37 1025.18 525.129 1036.91 513.826C1046.68 504.414 1052.5 485.118 1047 472z"/>
<path style="fill:#20c5e1; stroke:none;" d="M669 475L669 560L670 560L690 509L694 520L695 520C695 511.931 697.78 497.72 694.397 490.379C691.425 483.931 675.427 477.34 669 475z"/>
<path style="fill:#3d0d95; stroke:none;" d="M1045 475C1039.55 491.612 1024.3 499.147 1010 507.281C986.941 520.398 963.9 533.621 941 547L941 548C945.732 547.761 950.258 545.407 952 551C965.176 546.205 977.742 537.656 990 530.861C1014.3 517.392 1047 507.512 1047 475L1045 475z"/>
<path style="fill:#7d2dcd; stroke:none;" d="M332 476L332 486C335.411 482.656 335.411 479.344 332 476z"/>
<path style="fill:#a56ef4; stroke:none;" d="M207 479C204.915 482.637 199.094 484.502 197.833 488.083C196.819 490.963 201.244 493.703 203.639 492.278C205.729 491.034 202.843 489.565 202 489L216 485L214 482L217 481L217 479L207 479z"/>
<path style="fill:#663d98; stroke:none;" d="M749 481L749 579L750 579L750 511L749 481z"/>
<path style="fill:#7011a9; stroke:none;" d="M1042 481C1022.95 498.765 999.374 509.869 977 523.011C942.567 543.236 908.247 564.24 873 583L873 584C881.363 584.856 889.861 580.264 897 576.15C900.031 574.403 904.359 572.817 903 569C915.145 564.553 925.074 556.034 936.17 549.815C961.183 535.794 986.057 521.47 1011 507.281C1019.27 502.574 1042.94 492.484 1042 481z"/>
<path style="fill:#d7bee7; stroke:none;" d="M645 485L645 541L645.603 565.895L658 574L657 542L657 484L645 485z"/>
<path style="fill:#a56ef4; stroke:none;" d="M205 493L205 495L224 492L224 494L215 499L215 501L216 502C223.317 499.888 235.478 489.795 221 489C220.2 482.74 208.359 491.605 205 493z"/>
<path style="fill:#7c1dc9; stroke:none;" d="M332 488L332 497L334 497L334 488L332 488z"/>
<path style="fill:#a56ef4; stroke:none;" d="M237 507C241.983 508.083 248.244 504.451 242.782 499.417C238.45 495.423 221.933 496.065 224.694 504.935C226.019 509.189 236.315 512.449 237 507z"/>
<path style="fill:#7c1dc9; stroke:none;" d="M332 499L332 509C335.127 505.938 335.2 503.11 334 499L332 499z"/>
<path style="fill:#ffffff; stroke:none;" d="M233 500L233 501L241 504C239.072 500.502 236.878 500.125 233 500M229 502L228 505L237 507L229 502z"/>
<path style="fill:#a56ef4; stroke:none;" d="M250 515L238 511C240.595 518.237 247.341 518.585 254 517L250 509L257 513L261 512C256.275 503.831 240.537 504.641 250 515z"/>
<path style="fill:#1bb1d4; stroke:none;" d="M690 509C683.171 521.823 678.809 536.494 673.45 550C671.853 554.024 667.67 561.274 669.608 565.61C672.358 571.764 688.887 578.686 695 581L695 531C695 523.834 695.643 514.296 690 509z"/>
<path style="fill:#7c1dc9; stroke:none;" d="M332 510L332 520L334 520C335.2 515.89 335.127 513.062 332 510z"/>
<path style="fill:#a56ef4; stroke:none;" d="M259 515L263 523L252 519C255.376 528.414 272.393 527.664 264 517L271 521L274 520C271.493 513.386 265.035 513.564 259 515z"/>
<path style="fill:#9837d4; stroke:none;" d="M335 528C334.737 524.59 334.321 523.099 331 522L332 531C314.367 536.58 296.997 550.291 281 559.576C249.383 577.925 217.449 595.76 186 614.397C166.819 625.763 149 635.3 149 660L150 660L150 658L151 658C154.428 677.217 183.083 686.655 198 695.6C232.965 716.567 268.587 736.645 304 756.85C320.341 766.173 338.098 780.333 356 786C355.017 779.957 348.874 777.873 344 775.011C331.735 767.807 319.359 760.761 307 753.719C268.891 732.006 231.522 708.73 193 687.769C180.479 680.956 157.197 671.413 158.109 654C159.282 631.593 190.775 620.223 207 610.603C224.212 600.398 241.785 590.805 259 580.603C282.839 566.477 307.364 553.466 331 539L334 542C336.078 528.823 355.947 531.944 356 517L335 528z"/>
<path style="fill:#885ab3; stroke:none;" d="M557 517L557 535L558 535L557 517z"/>
<path style="fill:#000000; stroke:none;" d="M930 577C945.888 590.804 968.726 600.102 987 610.579C992.306 613.621 1001.64 621.405 1008 620.254C1013.83 619.199 1019.91 614.178 1025 611.281C1040.44 602.496 1061 594.039 1067.45 576C1074.41 556.536 1064.87 537.631 1049 525.924C1045.15 523.085 1038.93 518.116 1034 517.776C1026.45 517.257 1012.61 529.056 1006 532.85C980.727 547.357 954.321 560.958 930 577z"/>
<path style="fill:#12054e; stroke:none;" d="M753 526C756.964 524.85 758.597 523.167 758 519L753 526z"/>
<path style="fill:#6027bd; stroke:none;" d="M332 556C326.669 564.324 314.366 568.72 306 573.576C285.639 585.393 265.319 599.047 244 609L244 611C252.902 614.014 272.967 620.597 282 617.605C297.389 612.507 310.544 595.362 328 597.174C336.565 598.064 343.752 603.989 351 608.15C364.984 616.177 379.153 623.942 393 632.201C397.939 635.146 412.196 640.476 410.149 647.999C408.385 654.482 399.261 657.976 394 661C377.941 670.229 362.004 681.673 345 689L345 690C356.844 690.51 375.935 700.516 387 696.493C407.361 689.091 428.855 662.461 452 666.326C460.382 667.725 467.754 673.473 475 677.576C489.058 685.536 503.115 693.535 517 701.799C522.364 704.992 534.747 709.246 534.377 717C533.936 726.278 519.941 730.026 514 735C524.021 738.393 542.501 744.139 553 742.517C558.581 741.655 564.126 736.983 569 734.306C580.471 728.005 591.742 721.278 603 714.603C638.68 693.448 676.37 674.842 711 652L711 651L657 641C660.46 656.106 635.509 664.325 625 670.424C609.761 679.269 588.449 697.762 570 696.791C553.515 695.923 534.939 680.197 521 672.011C510.804 666.022 499.628 660.844 490.043 653.907C485.551 650.655 483.113 646.068 486.808 641.174C491.5 634.959 500.448 631.486 507 627.603C522.234 618.576 537.895 610.245 553 601L553 600C541.66 599.097 524.931 590.602 514 594.008C492.097 600.835 471.246 628.535 447 626.903C438.048 626.3 429.492 619.836 422 615.397C407.768 606.963 393.393 598.725 379 590.576C373.568 587.5 360.137 582.278 362.786 574C365.02 567.02 374.187 563.341 380 560C396.167 550.709 412.11 539.885 429 532C420.697 526.994 399.443 522.925 390 525.638C379.056 528.783 367.845 537.711 358 543.424C350.684 547.67 340.683 556.393 332 556z"/>
<path style="fill:#a56ef4; stroke:none;" d="M441 525.529C433.862 527.168 427.287 532.143 421 535.719C407.28 543.524 393.694 551.57 380 559.421C373.907 562.914 363.234 566.967 362.272 575C361.14 584.458 376.419 589.683 383 593.306C403.983 604.856 431.677 630.822 457 625.33C466.02 623.374 474.177 617.242 482 612.603C494.227 605.354 506.766 598.631 519 591.397C525.014 587.84 535.149 584.166 535.728 576C536.36 567.076 521.223 561.926 515 558.2C501.805 550.299 488.411 542.668 475 535.139C464.014 528.971 454.261 522.485 441 525.529z"/>
<path style="fill:#6426bc; stroke:none;" d="M443 528.468C434.903 529.995 428.006 535.556 421 539.573L383 561.281C378.072 564.089 366.366 568.573 365.582 575.014C364.71 582.174 379.984 588.043 385 590.989C397.901 598.567 410.893 606.09 424 613.306C434.486 619.078 442.436 624.903 455 622.532C475.084 618.743 497.469 600.285 515 589.989C519.997 587.054 531.874 582.681 532.534 576.011C533.209 569.19 517.86 563.364 513 560.694C499.509 553.285 486.353 545.234 473 537.579C463.224 531.974 454.765 526.248 443 528.468z"/>
<path style="fill:#e1ceed; stroke:none;" d="M703 540C703 558.921 706.384 581.586 702 600L716 607L716 539L703 540z"/>
<path style="fill:#7c1dc9; stroke:none;" d="M332 545C330.995 548.527 330.771 550.906 334 553L334 545L332 545z"/>
<path style="fill:#d07bff; stroke:none;" d="M919 569C928.293 565.13 950.634 557.172 951 546C941.25 547.76 920.413 558.459 919 569z"/>
<path style="fill:#8a42d7; stroke:none;" d="M951 547L951 552L952 552L951 547z"/>
<path style="fill:#5512bc; stroke:none;" d="M927 556L944 549C938.405 546.817 930.319 551.461 927 556z"/>
<path style="fill:#a56ef4; stroke:none;" d="M413 587L413 588C409.122 590.798 411.111 593.727 415.019 595.583C419.879 597.89 429.472 597.973 435 598.786C441.868 599.797 447.363 596.38 453 593C464.36 586.189 480.165 580.593 489.682 571.366C493.739 567.433 490.984 563.235 487 561L487 559L490 558C485.643 549.594 479.296 552.985 472 551.416C454.849 547.727 445.862 555.269 431 563.719C424.286 567.536 415.765 571.015 410.149 576.379C405.598 580.725 408.423 584.546 413 587z"/>
<path style="fill:#6625bb; stroke:none;" d="M411 579C412.646 584.561 418.275 586.602 423 589.397C427.35 591.969 432.738 595.971 438 595.84C443.979 595.692 450.027 590.91 455 587.989C466.316 581.343 478.053 575.244 489 568L478 559.201L462 552.087L445 559.427L411 579z"/>
<path style="fill:#9f79b8; stroke:none;" d="M950 552C941.713 556.841 919.808 563.533 919 574C926.101 572.631 951.958 560.484 950 552z"/>
<path style="fill:#6e21ff; stroke:none;" d="M917 570L918 570C921.096 562.793 925.476 559.994 932 556C924.271 553.947 917.69 563.307 917 570z"/>
<path style="fill:#380c8a; stroke:none;" d="M903 569L903 570L908 575L917 571C919.864 579.624 934.214 569.913 937 565L919 574L919 569L917 570L922 559L903 569z"/>
<path style="fill:#a56ef4; stroke:none;" d="M437 568L437 569L448 575L448 576L434 580L434 581L464 578L464 577L453 571L453 570L470 567L437 568z"/>
<path style="fill:#541d96; stroke:none;" d="M630 576L663 590.011L729 616C714.11 600.905 687.474 591.036 669 580.576C662.407 576.843 653.639 569.346 646 568.498C640.627 567.903 634.255 573.193 630 576z"/>
<path style="fill:#d07bff; stroke:none;" d="M875 593L908 576L907 571C897.348 573.214 878.315 583.329 875 593z"/>
<path style="fill:#9f79b8; stroke:none;" d="M906 576C896.986 581.261 875.387 587.19 875 599C882.685 597.63 909.291 585.624 906 576z"/>
<path style="fill:#ebdef3; stroke:none;" d="M733 617C733.565 609.57 740.162 607.337 746 604.001C757.575 597.385 775.324 591.128 784 581C771.327 574.631 756.297 586.527 744 590.757C739.733 592.224 735.144 591.579 731 593.414C726.956 595.204 720.238 598.087 718.029 602.104C713.711 609.954 727.48 615.253 733 617z"/>
<path style="fill:#000000; stroke:none;" d="M898 595L898 596L948 624C940.043 628.71 935.213 624.247 928 620.011C916.319 613.15 896.976 595.931 884 603.281C785.582 659.027 687.532 715.728 590 773.011C554.977 793.58 519.35 818.599 482 834.573C473.494 838.21 464.634 839.465 456 842.409C448.405 844.998 441.874 852.542 434 853.961C426.016 855.399 413.114 843.232 406 839.89C382.888 829.032 361.166 815.574 339 802.85C331.456 798.52 319.68 788.397 311 787.632C307.115 787.29 303.198 790.463 300 792.281C291.634 797.037 283.361 801.956 275 806.719C264.455 812.727 251.276 817.765 247 830C260.889 835.985 273.847 845.241 287 852.719C317.785 870.222 348.246 888.294 379 905.85C414.075 925.872 453.72 940.338 492 918L492 916L436 884C442.502 879.989 449.166 886.234 455 889.579C465.326 895.499 475.568 901.576 486 907.306C491.869 910.529 496.192 914.28 503 912L503 910L446 877C452.668 874.93 457.33 878.914 463 882.15L494 899.999C501.889 904.508 507.541 909.479 516 904C501.232 891.636 477.096 877.625 459 871L459 869C481.741 861.804 504.262 843.688 525 831.85C531.688 828.032 541.228 819.633 549 818.913C554.142 818.436 560.721 824.125 565 826.579C576.98 833.447 593.411 847.513 607 849.961C611.612 850.791 617.25 846.033 621 843.799C630.71 838.017 640.621 831.473 651 827L651 826L593 793L593 792C599.718 790.24 604.382 794.315 610 797.576C620.291 803.548 630.656 809.4 641 815.281C647.199 818.805 654.277 825.319 661 820L604 787C610.389 783.098 617.262 789.702 623 793C635.097 799.952 659.432 820.781 673 814L651 799.719L616 780L616 779L681 741.719L706 728.089L722 735.603L752 752.769L765 759.277L778 753.421L807 737L807 735L750 703L750 701C756.585 700.215 761.54 704.161 767 707.397C777.239 713.464 787.608 719.342 798 725.14C803.95 728.459 810.159 734.09 817 731L817 729C798.575 719.295 779.988 702.88 760 697L760 695C766.777 694.094 771.346 697.904 777 701.15L809 719.421C816.156 723.524 823.274 729.812 830 722L773 690L773 688C795.556 678.559 816.792 663.323 838 651.15C845 647.132 854.685 638.607 862.714 637.412C867.459 636.706 875.038 643.125 879 645.424C891.177 652.492 907.159 666.052 921 668.817C927.52 670.12 937.545 661.549 943 658.421C961.874 647.601 987.161 637.879 1003 623C985.066 612.423 967.065 601.935 949 591.579C943.113 588.204 933.849 580.232 927 579.893C918.198 579.457 905.879 591.317 898 595z"/>
<path style="fill:#864ad8; stroke:none;" d="M426 582L426 583L434 580L426 582z"/>
<path style="fill:#7123ff; stroke:none;" d="M873 594L874 594L887 582C879.956 580.129 874.492 588.1 873 594z"/>
<path style="fill:#8419c3; stroke:none;" d="M809 620L810 623L877 585C870.342 582.292 862.516 589.128 857 592.397C841.122 601.806 824.893 610.627 809 620z"/>
<path style="fill:#7d24b5; stroke:none;" d="M510 788L511 792L548 771.281L625 726.85L869 586C860.022 583.344 848.251 593.106 841 597.397C818.821 610.52 796.101 622.741 774 636C720.564 668.057 665.898 698.143 612 729.424C578.45 748.896 545.143 771.592 510 788z"/>
<path style="fill:#3d0e95; stroke:none;" d="M695 689L695 690C708.267 686.171 720.785 676.647 733 670.255C765.241 653.385 796.616 634.822 829 618.245C844.878 610.117 869.386 601.828 877 585C854.615 592.083 832.315 609.786 812 621.576C773.098 644.153 733.355 665.521 695 689z"/>
<path style="fill:#5e1d99; stroke:none;" d="M281 739C281 723.826 267.888 720.971 256 713.989C235.748 702.095 215.416 690.327 195 678.719C186.256 673.748 174.495 667.944 172.383 657C170.249 645.937 181.566 635.927 190 630.865C203.857 622.547 217.979 614.617 232 606.579C242.112 600.781 249.999 598.633 250 586C237.077 590.705 224.926 599.742 213 606.579C199.121 614.535 183.453 621.727 171.004 631.808C163.151 638.166 156.08 648.356 158.39 659C161.563 673.613 179.21 680.818 191 687.231C221.219 703.665 249.841 724.435 281 739z"/>
<path style="fill:#4c147c; stroke:none;" d="M281 729C281.002 745.935 304.863 752.819 318 760.603C334.882 770.607 352.08 780.073 369 790.011C393.818 804.587 416.04 818.251 446 814.714C490.759 809.431 530.486 776.358 569 754.86C636.172 717.365 702.261 677.834 769 639.573C797.821 623.049 826.51 602.139 857 589C848.188 585.848 829.637 593.53 822 597.988C798.399 611.765 774.599 625.202 751 638.988C692.199 673.339 632.801 706.666 574 741.012C550.736 754.6 527.442 768.151 504 781.424C492.564 787.9 481.316 796.239 469 800.934C431.94 815.063 404.6 800.349 373 781.4C343.558 763.745 312.65 742.247 281 729z"/>
<path style="fill:#4f1d9a; stroke:none;" d="M892 590L875 599L875 593L874 593C870.352 606.816 892.148 596.489 892 590z"/>
<path style="fill:#a56ef4; stroke:none;" d="M566 595.465C544.414 599.355 520.788 618.955 502 629.989C496.157 633.421 484.542 637.818 484.438 646C484.33 654.515 497.987 659.218 504 662.799C517.55 670.869 531.36 678.508 545 686.424C554.93 692.188 563.946 698.549 576 696.384C597.717 692.484 620.018 673.909 639 663C645.335 659.359 656.513 655.213 657.756 647C659.174 637.629 645.447 633.046 639 629.201C625.793 621.323 612.195 614.1 599 606.2C588.812 600.099 578.464 593.218 566 595.465z"/>
<path style="fill:#1595c3; stroke:none;" d="M289 676C288.997 672.049 285.606 665.271 286.452 662.145C288.288 655.366 296.347 651.471 300.566 646.671C303.508 643.326 302.551 638.803 304.457 635C307.975 627.98 315.656 623.745 323 622L323 598L331 598C322.737 594.533 313.113 599.513 306 603.579C290.317 612.545 274.537 621.392 259 630.603C253.221 634.03 239.897 638.826 240.257 646.999C240.486 652.199 246.087 655.061 250 657.396C261.23 664.096 276.514 672.327 289 676z"/>
<path style="fill:#1ebedd; stroke:none;" d="M323 598L323 621L331 620L334 613L334 620L349 621C349 617.001 350.099 611.072 348.397 607.379C344.435 598.782 330.846 598 323 598z"/>
<path style="fill:#5e26ba; stroke:none;" d="M567 598.465C546.28 602.201 525.341 620.788 507 630.769C501.721 633.642 489.498 638.374 488.377 645.014C487.082 652.678 501.783 657.872 507 660.85C521.697 669.239 536.134 678.146 551 686.231C559.013 690.589 565.494 695.094 575 693.384C595.968 689.612 617.805 671.697 636 661.011C641.266 657.918 653.475 653.787 654.623 646.986C655.903 639.412 641.181 634.228 636 631.281C621.946 623.286 608.02 615.057 594 607C585.263 601.978 577.523 596.567 567 598.465z"/>
<path style="fill:#7c1dc9; stroke:none;" d="M331 602L332 610L333 610L334 602L331 602z"/>
<path style="fill:#27e7f6; stroke:none;" d="M349 607L348 622C356.052 623.684 367.24 628.067 369.562 637C370.83 641.874 367.551 645.433 366.923 650C365.872 657.641 367 666.26 367 674L373 671L373 673C383.34 669.236 393.667 662.219 402.999 656.381C406.651 654.097 411.01 650.864 410.663 646.004C410.218 639.774 401.582 636.749 397 634C381.583 624.751 365.589 613.943 349 607z"/>
<path style="fill:#45108a; stroke:none;" d="M979 607C981.108 613.175 991.555 617.024 997 620.15C1009.36 627.245 1021.67 634.422 1034 641.576C1040.07 645.101 1047.12 648.296 1050.3 655C1056.22 667.488 1035.1 676.225 1027 680.85C996.286 698.383 965.163 715.539 935 734L927 728C926.33 732.499 928.963 733.786 933 735L933 736C921.82 739.538 911.167 747.75 901 753.579C879.29 766.025 857.704 778.692 836 791.15C764.425 832.234 692.923 873.451 621.424 914.71C595.246 929.816 569.283 945.338 543 960.281C528.24 968.672 514.767 978.156 497 976.911C475.61 975.411 455.062 958.218 437 947.85C394.279 923.328 351.708 898.545 309 874L269 850.85C262.323 847.018 254.113 843.626 249.704 836.996C242.074 825.524 257.326 820.65 262 813C243.891 814.203 237.553 834.587 252.001 845.39C265.041 855.142 280.916 862.25 295 870.424C327.29 889.165 359.71 907.684 392 926.424C409.972 936.855 428.124 947.01 446 957.603C457.393 964.355 469.358 973.109 482 977.251C505.229 984.861 524.222 975.526 544 964.281C571.075 948.888 600.076 925.952 630 920L628 915C640.948 910.287 653.059 901.267 665 894.421C688.375 881.021 711.64 867.426 735 854C748.262 846.378 765.48 831.282 781 833L779 828C814.043 813.333 846.959 789.066 880 770.281C897.246 760.476 922.104 751.087 936 737L945 741L941 736L941 734C951.252 730.984 960.752 723.55 970 718.281C989.056 707.424 1007.97 696.329 1027 685.421C1036.5 679.974 1051.8 674.446 1055.2 663C1057.73 654.487 1051.68 647.772 1045 643.44C1032.09 635.06 1018.23 628.073 1005 620.201C997.192 615.553 987.995 608.623 979 607z"/>
<path style="fill:#541c9e; stroke:none;" d="M553 744L553 743C542.013 740.869 522.816 732.89 512 735.904C489.206 742.256 471.056 768.557 446 767.945C437.593 767.74 430.038 761.867 423 757.85C408.289 749.452 393.695 740.846 379 732.421C373.504 729.27 361.457 724.656 361.457 717C361.457 706.922 378.523 703.394 384 697C372.498 694.769 358.717 689.511 347 690.144C337.258 690.67 330.586 698.09 320 695.873C303.736 692.467 286.361 677.654 272 669.421C263.421 664.503 253.963 660.091 246.005 654.214C243.121 652.085 239.603 649.008 240.801 645.004C242.259 640.13 248.012 637.763 252 635.397C261.272 629.895 271.008 624.93 280 619C272.131 615.217 250.561 609.503 242 611.074C230.204 613.239 216.42 625.353 206 631.281C196.679 636.583 179.663 643.292 183.573 657C186.401 666.919 199.864 671.914 208 676.579C230.375 689.406 252.579 702.534 275 715.281C309.793 735.062 344.227 755.468 379 775.281C403.389 789.177 423.631 803.338 453 797.829C466.253 795.344 477.535 787 489 780.427C510.114 768.323 530.949 754.296 553 744z"/>
<path style="fill:#7c1dc9; stroke:none;" d="M332 613C330.995 616.527 330.771 618.906 334 621L334 613L332 613z"/>
<path style="fill:#a56ef4; stroke:none;" d="M577 619.637C571.623 621.163 567.32 625.347 562 626.836C557.781 628.018 553.289 626.406 549 627.638C542.352 629.548 535.932 634.527 530 638.011C525.985 640.369 517.421 643.442 515.801 648.181C513.908 653.719 522.419 656.907 526 659.011C536.73 665.314 554.94 681.113 568 677.2C577.308 674.411 593.945 665.519 600.678 658.471C603.176 655.857 602.083 652.153 604.407 649.529C608.042 645.427 614.136 644.671 616.254 638.996C618.518 632.929 613.589 629.013 608.999 626.204C599.451 620.362 588.339 616.419 577 619.637z"/>
<path style="fill:#8cbae6; stroke:none;" d="M328 620L328 621L332 621L328 620z"/>
<path style="fill:#8fe1ef; stroke:none;" d="M334 620L334 621L343 621L334 620z"/>
<path style="fill:#80d7e9; stroke:none;" d="M323.667 621.333L324.333 621.667L323.667 621.333z"/>
<path style="fill:#ffffff; stroke:none;" d="M292 658C286.034 659.436 283.278 664.56 290.044 667.772C294.121 669.707 298.885 669.109 303 667.691C315.955 663.229 328.301 659.914 342 658.91C353.81 658.044 379.501 647.956 367.566 632.015C357.44 618.491 329.107 617.319 315 624.378C304.947 629.409 306.235 635.592 301.821 643.96C298.684 649.907 290.714 650.168 292 658z"/>
<path style="fill:#6027bd; stroke:none;" d="M596 652L596 650C601.147 647.782 611.083 643.998 612.547 637.96C615.354 626.388 591.934 620.654 584 621.04C576.057 621.426 571.039 626.683 564 629.363C560.022 630.879 556.087 628.481 552 629.422C543.844 631.301 535.234 638.275 528 642.427C525.557 643.83 521.368 645.555 520.176 648.313C518.43 652.35 525.428 655.263 528 656.799C537.312 662.363 550.23 673.101 561 674.772C570.761 676.286 583.057 665.979 591 661.2C594.355 659.181 601.288 655.568 596 652z"/>
<path style="fill:#cd2dff; stroke:none;" d="M724 670C731.178 670.841 738.938 664.166 745 660.719C760.394 651.967 775.622 642.929 791 634.15C797.136 630.648 806.516 627.35 810 621C800.153 622.899 790.641 630.796 782 635.719C763.755 646.115 739.304 655.669 724 670z"/>
<path style="fill:#c8eff7; stroke:none;" d="M332 622L332 623L341 623L332 622z"/>
<path style="fill:#24cae4; stroke:none;" d="M326 623L326 624C338.287 624.297 353.607 641.018 339.56 650.772C332.863 655.422 327.845 648.73 321 650C331.155 660.026 348.331 658.935 359.985 650.362C369.849 643.105 365.918 631.63 355.999 626.912C352.871 625.424 349.383 624.386 346 623.669C339.556 622.302 332.556 623 326 623z"/>
<path style="fill:#844ad8; stroke:none;" d="M444 623L444 624L453 624L444 623z"/>
<path style="fill:#1caed3; stroke:none;" d="M295 656C302.108 659.917 316.677 653.726 320.972 646.671C324.669 640.6 323.541 634.996 331 631L332 624C322.818 624.006 312.986 625.957 308.318 635.001C306.526 638.472 307.484 642.601 305.258 645.907C302.428 650.109 297.377 651.413 295 656z"/>
<path style="fill:#9022d2; stroke:none;" d="M332 624L331 632L334 632L332 624z"/>
<path style="fill:#ffffff; stroke:none;" d="M923 669L923 671L954 688L954 690C930.971 697.29 908.02 715.852 887 727.85C880.275 731.688 871.887 738.944 864.286 740.536C860.778 741.27 856.858 737.907 854 736.281C844.716 730.999 834.781 721.316 824 726L824 728L855 745L855 747C840.424 750.206 826.592 725.068 813 733L844 751L844 753C830.681 756.031 820.718 737.831 808 737.032C803.618 736.756 798.609 740.891 795 743.011C785.363 748.671 775.328 753.847 766 760L798 779C778.449 791.896 757.257 802.668 737 814.424C728.505 819.355 717.646 828.638 708 830.651C703.852 831.517 699.391 827.785 696 825.85C685.767 820.008 677.596 811.653 666 817L666 818L698 835L698 837C683.156 840.881 670.263 815.433 656 823L688 842L688 843C674.28 847.089 664.073 827.604 651 827.438C646.499 827.381 641.743 831.276 638 833.421C628.351 838.953 618.84 844.817 609 850L609 852L640 869L640 871C617.814 880.56 596.961 895.404 576 907.421C568.525 911.707 559.437 919.478 551 921.362C536.443 924.613 525.639 899.279 510 907L510 909L541 926L541 928C525.675 931.204 514.164 907.922 499 913L499 915L530 932L530 934C516.784 937.088 506.55 919.262 494 917.924C487.038 917.181 476.191 925.07 469 926.764C452.129 930.738 433.499 929.942 417 924.656C399.916 919.182 384.42 908.374 369 899.424C341.715 883.589 314.399 867.789 287 852.15C274.424 844.972 260.898 834.088 247 830C249.174 844.442 267.624 850.809 279 857.281C311.452 875.741 343.549 894.821 376 913.281C402.091 928.123 427.906 943.445 454 958.281C467.844 966.152 481.442 976.579 498 976.985C517.406 977.462 531.776 967.324 548 958C572.84 943.724 597.391 928.858 622.286 914.71C688.05 877.333 753.605 839.53 819 801.576C856.477 779.825 893.752 754.324 933 736L933 735C929.365 733.378 927.185 732.137 927 728L935 734C962.007 722.362 987.562 704.188 1013 689.424C1023.94 683.077 1040.74 677.121 1048.58 666.985C1061.47 650.324 1028.69 637.807 1018 631.719C1013.58 629.203 1007.41 623.66 1002 624.604C994.388 625.933 985.686 633.334 979 637.15C960.498 647.711 942.302 659.988 923 669z"/>
<path style="fill:#53c2e6; stroke:none;" d="M334 625L334 632L328 631L325 637L326 638L328 638C336.991 628.061 338.711 641.99 341 648L325 648L325 649C335.476 656.801 348.091 649.53 344.682 636.001C343.329 630.63 337.618 628.605 334 625z"/>
<path style="fill:#834ad8; stroke:none;" d="M443 626L443 627L454 627L443 626z"/>
<path style="fill:#a56ef4; stroke:none;" d="M567 635C572.42 637.885 577.649 641.134 583 644.15C588.617 647.315 606.99 645.431 604.124 635.089C599.779 619.409 573.992 626.838 567 635z"/>
<path style="fill:#6326bc; stroke:none;" d="M573 633L573 635C577.796 637.553 582.73 641.86 588 643.257C591.769 644.256 601.937 640.357 599.824 635.17C595.107 623.588 580.266 629.87 573 633z"/>
<path style="fill:#8cc3ef; stroke:none;" d="M327 639L337 638L338 645C343.781 636.526 332.341 630.456 327 639z"/>
<path style="fill:#d03dee; stroke:none;" d="M331 636L331 637L334 637L331 636z"/>
<path style="fill:#370d6e; stroke:none;" d="M773 688L773 690C782.073 694.779 798.778 709.778 809 706L809 705L781 690L781 688L840 654.719L863 642.453L894 658L897 656L873 641.421L863 637.067L837 651.15L773 688z"/>
<path style="fill:#a2dbef; stroke:none;" d="M322 638L322 647L323 647L322 638z"/>
<path style="fill:#000000; stroke:none;" d="M781 688L781 690L819 711.576L835 719.335L849 712L808 688L808 687C819.374 680.946 831.419 670.516 843.961 667.34C853.165 665.009 864.672 667.272 874 667.911C886.617 668.775 898.658 666.536 899 683L918 673L879 649.579L863 641.889L839 654.719L781 688z"/>
<path style="fill:#45108a; stroke:none;" d="M998 645L998 651L1003 651L1003 652L998 652L998 655L1013 661L1012 656L1013 656L1019 661L1014 652L1024 661C1023.29 647.958 1008.8 645.03 998 645z"/>
<path style="fill:#a56ef4; stroke:none;" d="M544 656C548.38 661.087 566.799 660.257 569.338 652.79C571.911 645.221 558.094 644.914 554.143 647.178C550.25 649.41 548.245 653.702 544 656z"/>
<path style="fill:#ffffff; stroke:none;" d="M1002 648L1002 649L1006 649L1002 648M1008.67 649.333L1009.33 649.667L1008.67 649.333z"/>
<path style="fill:#20c9e3; stroke:none;" d="M335 659L335 660L339 660L339 690C345.942 687.009 363.355 680.036 366.397 672.815C368.95 666.751 367 656.538 367 650C355.678 654.284 347.586 658.992 335 659z"/>
<path style="fill:#ffffff; stroke:none;" d="M1011 650L1012 651L1011 650z"/>
<path style="fill:#1bb0d4; stroke:none;" d="M305 660L305 662C313.192 665.914 319.987 658.903 328 657C320.606 647.636 313.353 654.887 305 660z"/>
<path style="fill:#3e1070; stroke:none;" d="M655 736C690.953 716.865 725.676 695.127 761 674.85C769.381 670.04 794.292 660.957 796 651C781.545 655.172 766.904 666.474 754 674.2C731.89 687.437 709.11 699.561 687 712.8C678.763 717.732 655.827 725.587 655 736z"/>
<path style="fill:#ffffff; stroke:none;" d="M1013 651L1014 652L1013 651M1005.67 652.333L1006.33 652.667L1005.67 652.333M1008 653L1008 654L1012 656L1012 655L1008 653z"/>
<path style="fill:#9ee7f2; stroke:none;" d="M347.667 655.333L348.333 655.667L347.667 655.333z"/>
<path style="fill:#a9dcec; stroke:none;" d="M291.333 656.667L291.667 657.333L291.333 656.667z"/>
<path style="fill:#45108a; stroke:none;" d="M894 656C895.71 661.47 902.288 663.841 907 666.576C919.412 673.779 931.817 682.319 945 688L945 690C924.295 696.554 903.882 713.071 885 723.85C879.271 727.12 870.047 735.108 863.424 735.533C859.429 735.79 854.323 731.174 851 729.281C840.992 723.579 831.055 717.752 821 712.14C816.164 709.44 811.699 705.694 806 707L806 709C818.94 716.631 832.074 723.943 845 731.603C849.92 734.519 857.138 740.688 863 740.944C870.711 741.279 882.418 731.023 889 727.281C910.513 715.05 931.596 700.472 954 690L954 688L915 665.424L894 656z"/>
<path style="fill:#9ee7f3; stroke:none;" d="M349.667 657.333L350.333 657.667L349.667 657.333z"/>
<path style="fill:#45108a; stroke:none;" d="M997 661L1004 660L1004 658C1000.33 657.021 998.26 657.202 997 661z"/>
<path style="fill:#b340f6; stroke:none;" d="M150 658C152.234 680.269 191.973 696.583 210 705L211 702C188.527 692.594 163.485 678.042 150 658z"/>
<path style="fill:#1cb3d6; stroke:none;" d="M289 667C289 669.982 288.373 673.974 290.028 676.621C292.223 680.133 297.535 681.916 301 683.861C309.826 688.816 327.482 699.889 337.397 690.157C342.445 685.201 338.644 666.791 339 660C322.135 657.869 304.663 674.308 289 667z"/>
<path style="fill:#200041; stroke:none;" d="M149 660C149 670.7 148.06 680.918 154.928 689.961C163.033 700.631 178.58 706.788 190 713.281C207.729 723.36 225.313 733.698 243 743.85C251.916 748.968 261.097 756.087 271 759L271 758C264.98 754.316 252.077 746.005 266 742C265.177 731.578 242.36 723.482 234 718.719C216.942 709 199.86 699.257 183 689.201C174.899 684.369 165.945 680.451 159.015 673.907C154.62 669.757 152.677 664.534 149 660z"/>
<path style="fill:#9bdaeb; stroke:none;" d="M304.333 660.667L304.667 661.333L304.333 660.667z"/>
<path style="fill:#1ecfff; stroke:none;" d="M265 664C267.497 668.403 272.959 671.518 278 671L265 664z"/>
<path style="fill:#a56ef4; stroke:none;" d="M441 666.519C433.134 668.225 425.889 673.629 419 677.579C405.637 685.24 392.391 693.106 379 700.719C372.995 704.133 362.221 708.091 361.272 716C360.131 725.516 375.404 730.967 382 734.719C401.86 746.017 431.126 772.238 455 766.985C476.462 762.262 497.785 743.686 517 733.231C523.269 729.82 534.291 725.388 534.677 717C535.083 708.196 520.237 703.044 514 699.424C500.032 691.318 486.038 683.265 472 675.281C462.094 669.646 452.922 663.933 441 666.519M808 687C817.434 698.086 836.483 704.979 849 712.397C853.478 715.05 859.651 720.124 865 720.385C871 720.678 878.965 713.894 884 711C888.86 708.207 898.817 704.72 900.566 698.896C902.413 692.748 900.481 673.824 894.856 670.089C889.326 666.419 880.294 668.01 874 668C864.302 667.984 853.61 665.12 844 667.083C832.25 669.482 817.631 680.003 808 687z"/>
<path style="fill:#6f4aa5; stroke:none;" d="M865 667L865 668L871 668L865 667z"/>
<path style="fill:#8cd2e6; stroke:none;" d="M294 669L294 670L300 670L294 669z"/>
<path style="fill:#561ea4; stroke:none;" d="M442 669.529C433.369 671.51 425.526 677.592 418 681.988C406.064 688.961 393.894 695.551 382 702.603C377.068 705.528 364.684 710.199 364.507 717C364.325 724.002 378.977 729.193 384 732.2C396.528 739.7 409.393 746.647 422 754.012C432.999 760.437 441.754 766.995 455 763.761C475.318 758.8 497.042 741.245 515 730.603C519.645 727.851 531.364 723.551 531.364 717.003C531.364 710.271 516.906 704.82 512 702C497.648 693.751 483.376 685.357 469 677.15C460.549 672.326 452.151 667.2 442 669.529z"/>
<path style="fill:#000000; stroke:none;" d="M813 687C822.825 696.159 837.187 674.802 847.576 674.514C859.551 674.182 869.927 691.869 882 692.191C890.834 692.427 901.122 680.02 892.566 672.742C888.045 668.896 875.696 670 870 670C861.986 669.999 852.853 667.63 845 669.394C834.167 671.826 822.527 681.382 813 687z"/>
<path style="fill:#6c48a0; stroke:none;" d="M857 669L857 670L863 670L857 669z"/>
<path style="fill:#ff3fff; stroke:none;" d="M679 695L680 698L710 680.769L725 670C709.273 673.033 693.171 687.536 679 695z"/>
<path style="fill:#7c53b8; stroke:none;" d="M880 670L880 671L886 671L880 670z"/>
<path style="fill:#57ffff; stroke:none;" d="M277 671C280.373 676.514 288.533 679.537 294 682.799C301.075 687.022 309.047 693.077 317 695.362C330.457 699.229 343.011 691.344 354 684.799C359.825 681.33 370.766 677.766 373 671C355.501 677.37 340.108 695.854 320 692.787C304.241 690.384 292.605 674.009 277 671z"/>
<path style="fill:#ffffff; stroke:none;" d="M835 720C840.635 724.896 855.46 735.656 863 735.852C869.871 736.03 880.13 727.201 886 723.85C905.516 712.709 924.651 699.512 945 690L945 688C938.065 683.756 926.256 673.864 918 673.665C912.59 673.535 900.92 680.406 900.163 686.015C899.507 690.873 902.632 696.251 899.258 700.621C893.465 708.125 877.578 714.997 869 718.913C861.539 722.318 856.929 714.115 850 713.205C845.102 712.562 839.03 717.623 835 720z"/>
<path style="fill:#000000; stroke:none;" d="M846 677L846 678L878 696C873.384 688.452 854.629 678.664 846 677z"/>
<path style="fill:#53377a; stroke:none;" d="M856 678L857 679L856 678z"/>
<path style="fill:#4c1b92; stroke:none;" d="M149 679C149.726 694.855 162.877 701.58 175 708.799C201.446 724.549 228.313 739.662 255 755C288.707 774.372 322.205 794.067 356 813.281C388.377 831.689 416.09 848.625 455 842.561C496.355 836.115 534.309 805.525 570 785.15C591.382 772.944 612.6 760.455 634 748.281C640.513 744.576 653.692 740.039 655 732C638.577 738.839 623.416 749.735 608 758.573L524 806.85C502.961 818.927 483.127 832.433 459 837.486C417.758 846.123 388.435 827.163 354 807.421C310.912 782.719 268.075 757.576 225 732.85C203.844 720.707 175.695 709.785 158.174 692.711C154.031 688.674 152.371 683.453 149 679z"/>
<path style="fill:#6c48a0; stroke:none;" d="M842.667 679.333L843.333 679.667L842.667 679.333z"/>
<path style="fill:#000000; stroke:none;" d="M821 692C827.12 697.124 844.902 709.969 853 709.357C859.643 708.856 868.374 701.443 874 698C868.254 692.62 850.109 679.413 842 680.526C835.147 681.467 826.703 688.238 821 692z"/>
<path style="fill:#54387c; stroke:none;" d="M854 682L855 683L854 682z"/>
<path style="fill:#ffffff; stroke:none;" d="M895 685L883 692L883 694L889 697L889 699L861 714L861 716C867.61 717.97 872.407 713.785 878 710.579C888.594 704.505 901.991 699.548 895 685z"/>
<path style="fill:#a56ef4; stroke:none;" d="M468 694.638C455.719 698.167 446.067 708.977 434 713.185C424.818 716.387 415.156 713.027 407.533 721.329C402.049 727.302 404.556 734.697 411.015 738.647C419.586 743.889 430.495 744.07 440 741.622C451.284 738.716 449.783 730.775 457.148 724.954C465.62 718.259 482.215 714.899 488.214 705.788C494.229 696.653 473.385 693.091 468 694.638z"/>
<path style="fill:#370d6e; stroke:none;" d="M760 695L760 697C768.665 700.734 788.214 718.693 797 712C787.495 706.395 771.252 692.586 760 695z"/>
<path style="fill:#7399d6; stroke:none;" d="M331.667 695.333L332.333 695.667L331.667 695.333z"/>
<path style="fill:#523679; stroke:none;" d="M826 695L827 696L826 695z"/>
<path style="fill:#ffffff; stroke:none;" d="M878 695L881 697L878 695z"/>
<path style="fill:#6b68c8; stroke:none;" d="M323 696L323 697L327 697L323 696z"/>
<path style="fill:#561fa5; stroke:none;" d="M470 696.65C457.418 700.358 447.288 711.548 435 716.157C426.843 719.217 418.234 714.981 411.228 722.214C397.99 735.881 426.918 742.434 436 740.251C440.397 739.194 445.505 737.692 448.258 733.815C450.568 730.561 449.77 726.628 453.148 723.954C461.351 717.462 478.811 713.79 484.248 704.687C487.923 698.534 473.786 695.534 470 696.65z"/>
<path style="fill:#ff60ff; stroke:none;" d="M627 728L665 706.85L680 696C666.326 698.637 650.967 711.074 639 718.201C634.571 720.838 628.703 722.841 627 728z"/>
<path style="fill:#ffffff; stroke:none;" d="M881.667 697.333L882.333 697.667L881.667 697.333M853 710C859.5 715.385 873.619 704.675 879 700C870.548 696.131 859.951 705.4 853 710z"/>
<path style="fill:#000000; stroke:none;" d="M244 827C248.281 818.078 256.807 814.269 265 809.573C278.658 801.742 292.07 793.337 306 786L306 784C270.229 762.103 233.375 741.73 197 720.85L170 705.281C166.604 703.345 162.151 699.518 158 700.269C132.19 704.937 125.816 741.381 138.104 760C153.093 782.711 187.959 795.696 211 808.85C221.494 814.84 232.474 823.353 244 827z"/>
<path style="fill:#370d6e; stroke:none;" d="M750 701L750 703C760.244 708.396 775.189 722.401 787 719C779.41 712.405 760.158 698.882 750 701z"/>
<path style="fill:#cb46ff; stroke:none;" d="M210 703C213.473 709.685 223.654 713.262 230 716.989C246.583 726.729 263.503 735.923 280 745.8C286.617 749.762 296.054 757.931 304 757L255 727.988L210 703z"/>
<path style="fill:#4e3473; stroke:none;" d="M840 703L841 704L840 703z"/>
<path style="fill:#a56ef4; stroke:none;" d="M445 724C453.069 721.627 464.622 715.491 470 709C457.377 700.79 448.844 714.44 437 718.301C431.82 719.989 426.178 718.097 421 719.97C416.661 721.539 410.822 725.669 413.223 730.985C418.878 743.506 448.738 740.321 445 724z"/>
<path style="fill:#370d6e; stroke:none;" d="M739 708C749.805 717.389 764.718 723.451 777 730.8C782.012 733.799 787.099 737.981 792 733C779.591 727.206 767.905 719.487 756 712.719C750.433 709.554 745.406 705.107 739 708z"/>
<path style="fill:#45108a; stroke:none;" d="M793 714L793 716C807.482 722.769 821.103 732.218 835 740.15C841.296 743.744 847.542 749.315 855 747L855 745C840.545 738.251 826.864 729.064 813 721.15C806.657 717.53 800.596 712.37 793 714M783 720L783 722C796.946 730.224 810.952 738.368 825 746.421C830.885 749.795 837.017 755.244 844 753L844 751C829.777 742.612 815.506 734.12 801 726.231C795.372 723.17 789.637 718.382 783 720M915 723C917.017 726.932 919.658 728.419 924 729C923.165 724.067 919.826 722.097 915 723z"/>
<path style="fill:#ff85ff; stroke:none;" d="M529 782L529 783C538.513 782.026 547.921 774.611 556 769.799C571.86 760.354 587.991 751.339 604 742.15C610.537 738.397 624.547 733.43 627 726L590 746.576L529 782z"/>
<path style="fill:#370d6e; stroke:none;" d="M616 779L616 780L650 799L652 796L652 795L624 779C643.274 770.001 661.656 757.785 680 747.011C687.531 742.588 696.558 735.369 705 733.102C715.113 730.386 722.448 746.507 733 742C727.489 737.386 713.428 726.953 706 727.631C697.823 728.378 687.11 737.674 680 741.719C658.661 753.858 636.491 765.484 616 779z"/>
<path style="fill:#000000; stroke:none;" d="M624 779L663 802.281L678 809.562L689 805L689 803L650 781C662.231 772.933 675.415 766.294 688 758.799C693.818 755.335 700.937 749.602 708 749.602C722.968 749.601 733.711 767.571 748 769.076C752.114 769.51 756.431 765.668 760 764L760 762L723 740.281L707 732.438L683 744.719L624 779z"/>
<path style="fill:#2b1256; stroke:none;" d="M266 738C267.042 744.403 273.928 746.175 279 749.201C289.187 755.277 298.691 760.875 299 774L271 759L271 760C299.523 777.457 328.927 793.752 358 810.281C369.779 816.978 383.566 828.604 397 831C397 826.012 398.813 816.635 395.397 812.61C387.199 802.951 368.89 796.85 358 790.397C337.472 778.232 316.76 766.331 296 754.576C286.205 749.029 276.606 741.859 266 738z"/>
<path style="fill:#45108a; stroke:none;" d="M947 741C948.264 745.271 950.837 746.759 955 748L956 747C954.345 742.635 951.5 741.465 947 741z"/>
<path style="fill:#000000; stroke:none;" d="M299 774C298.874 759.895 289.014 754.442 278 748.012C274.284 745.842 268.594 741.683 264.044 742.423C250.18 744.678 267.551 756.574 271 758.576L282 764.85C287.585 768.037 293.06 771.514 299 774z"/>
<path style="fill:#45108a; stroke:none;" d="M730 743L730 745L789 779C769.795 791.668 748.984 802.443 729 813.85C723.145 817.191 712.947 826.123 706 825.532C701.493 825.149 696.815 821.04 693 818.85L666 803.421C660.779 800.428 655.218 795.799 649 797C656.38 808.776 679.983 817.252 692 824.15C696.081 826.492 702.094 831.554 707 831.307C714.93 830.907 726.232 821.407 733 817.397C753.364 805.329 780.755 795.148 798 779C782.98 769.061 766.783 760.364 751 751.694C744.611 748.185 737.598 741.969 730 743M957 747C958.493 751.164 960.822 752.748 965 754C965.787 748.719 961.627 747.477 957 747z"/>
<path style="fill:#684599; stroke:none;" d="M706 749L706 750L710 750L706 749z"/>
<path style="fill:#a56ef4; stroke:none;" d="M650 781C662.569 789.29 676.018 796.386 689 804.011C693.681 806.76 700.369 812.551 706 812.551C714.75 812.551 727.503 801.43 735 797.15C740.361 794.091 760.271 786.313 759.534 779.001C758.824 771.956 742.454 766.201 737 763.139C729.231 758.777 720.064 750.992 711 750.105C701.278 749.154 693.993 754.66 686 759.397C674.481 766.223 659.782 771.84 650 781z"/>
<path style="fill:#000000; stroke:none;" d="M701 754L701 756L711 761L711 757L718 758L718 760L712 761L712 762L732 773L730 769L738 769L733 773L733 774C737.363 775.722 739.872 775.054 744 773L744 771C732.192 763.773 715.204 748.825 701 754z"/>
<path style="fill:#45108a; stroke:none;" d="M968 753C968.835 757.933 972.174 759.903 977 759C974.811 755.164 972.373 753.586 968 753z"/>
<path style="fill:#ff53ff; stroke:none;" d="M303 757C306.112 762.524 313.588 765.326 319 768.306C329.457 774.062 339.627 780.371 350 786.281C366.769 795.835 383.787 808.797 402 815.302C427.122 824.273 459.918 821.537 484 810.688C500.71 803.161 515.426 791.738 532 784C524.695 780.185 510.438 792.475 504 796.15C482.721 808.298 460.142 818.6 435 817.985C397.238 817.062 365.709 791.53 334 773.576C324.294 768.08 313.952 759.506 303 757z"/>
<path style="fill:#000000; stroke:none;" d="M656 781C665.324 787.15 684.749 802.52 696 801L696 799L667 783L667 781C676.521 777.534 688.881 764.271 699 764.514C709.668 764.77 723.514 785.031 734 778C724.37 772.105 709.276 759.006 698 757.712C693.843 757.235 689.415 760.9 686 762.85C676.338 768.364 664.118 773.398 656 781z"/>
<path style="fill:#a56ef4; stroke:none;" d="M711 757C712.26 760.798 714.326 760.979 718 760L718 758L711 757z"/>
<path style="fill:#714ba7; stroke:none;" d="M711.333 760.667L711.667 761.333L711.333 760.667z"/>
<path style="fill:#53377a; stroke:none;" d="M713 762L714 763L713 762z"/>
<path style="fill:#7c53b8; stroke:none;" d="M722 762L722 763L726 763L722 762z"/>
<path style="fill:#a56ef4; stroke:none;" d="M988 779C988.856 785.156 998.275 777.821 1001 776L1001 775L991 772L995 775L995 776C993.304 776.176 991.681 776.405 989.975 776.147C973.905 773.709 997.179 755.238 1002 772L1007 772C1006.09 759.929 986.613 758.679 979.434 766.394C973.28 773.008 982.012 778.383 988 779z"/>
<path style="fill:#6c48a0; stroke:none;" d="M698.667 763.333L699.333 763.667L698.667 763.333z"/>
<path style="fill:#a56ef4; stroke:none;" d="M720 764L728 766L728 764L720 764z"/>
<path style="fill:#ffffff; stroke:none;" d="M750 769L750 771C753.085 772.828 759.646 775.46 759.079 779.964C758.517 784.428 751.34 787.049 748 789.011C736.681 795.659 719.945 810.056 707 812.076C701.203 812.981 696.386 806.387 691 805.208C686.547 804.232 681.907 808.316 678 810L678 811C685.475 814.937 698.478 826.566 707 826.111C714.302 825.721 723.742 817.422 730 813.85C748.538 803.268 773.447 793.564 789 779C775.978 770.383 764.579 760.077 750 769z"/>
<path style="fill:#a56ef4; stroke:none;" d="M667 781L667 783C675.558 788.238 684.292 793.299 693 798.28C696.191 800.105 700.146 803.294 704 803.191C713.604 802.935 727.475 790.49 736 786L736 784L710 769.15L698 764.38L667 781z"/>
<path style="fill:#4e3473; stroke:none;" d="M732 764L733 765L732 764z"/>
<path style="fill:#000000; stroke:none;" d="M673 781L673 783C680.157 786.809 691.813 797.164 700 797.164C707.716 797.164 719.694 787.173 726 783C720.719 778.055 705.473 766.951 698 767.631C689.863 768.372 680.184 777.216 673 781z"/>
<path style="fill:#4e3473; stroke:none;" d="M700 767L701 768L700 767z"/>
<path style="fill:#53377a; stroke:none;" d="M727 770L728 771L727 770z"/>
<path style="fill:#ffffff; stroke:none;" d="M743 773L743 774L747 774L747 778L742 778L742 779C747.283 782.226 753.134 785.557 756 778L743 773M739 775L738 777L740 777L739 775z"/>
<path style="fill:#a56ef4; stroke:none;" d="M1006 777L1006 778L1015 781L1015 782L1013 784C1010.41 781.908 992.53 775.042 996.407 784.791C997.301 787.037 999.948 787.804 1001.91 788.765C1017.69 796.481 1024.12 771.796 1006 777z"/>
<path style="fill:#ffffff; stroke:none;" d="M740 777L741 778L740 777M730 781L736 784L736 786L705 802.535L694 801L694 803L706 808.551L719 802.421L747 786C742.517 782.105 735.537 776.83 730 781z"/>
<path style="fill:#6f4aa5; stroke:none;" d="M672.333 781.667L672.667 782.333L672.333 781.667z"/>
<path style="fill:#ffffff; stroke:none;" d="M1000 783L1000 785L1010 786C1007.02 782.778 1004.26 781.939 1000 783z"/>
<path style="fill:#8b2dc5; stroke:none;" d="M356 783C357.471 791.576 374.887 797.899 382 801.769C412.902 818.583 445.312 822.356 479 809.771C487.265 806.683 509.393 798.369 511 789C498.966 792.54 488.412 801.47 477 806.691C457.925 815.419 433.335 817.997 413 812.511C392.169 806.89 376.399 789 356 783z"/>
<path style="fill:#53377a; stroke:none;" d="M674 783L675 784L674 783z"/>
<path style="fill:#ffffff; stroke:none;" d="M701 797L701 799C710.114 800.181 722.585 789.891 730 785C722.857 780.364 707.693 793.475 701 797z"/>
<path style="fill:#370d6e; stroke:none;" d="M306 784C295.51 795.354 273.206 805.878 259 812L259 813C265.837 813.815 271.284 809.431 277 806.15C288.163 799.742 299.172 792.097 311 787L311 786L306 784M604 787L637 806L640 803C634.313 797.675 610.246 780.835 604 787z"/>
<path style="fill:#a56ef4; stroke:none;" d="M1011 793L1011 795L1035 791L1029 788C1028.12 781.065 1014.28 791.043 1011 793z"/>
<path style="fill:#370d6e; stroke:none;" d="M593 792L593 793L627 812L630 809C622.823 802.992 602.095 788.095 593 792z"/>
<path style="fill:#4e3473; stroke:none;" d="M688 791L689 792L688 791z"/>
<path style="fill:#a56ef4; stroke:none;" d="M1035 792L1043 797L1043 799L1042 800C1038.02 797.728 1029.82 793.145 1025.62 797.603C1021.28 802.221 1032.58 807.493 1036.09 807.387C1039.83 807.274 1048.56 801.536 1046.82 797.104C1045.12 792.753 1038.93 792.18 1035 792z"/>
<path style="fill:#4e3473; stroke:none;" d="M685 793L686 794L685 793M681 795L682 796L681 795z"/>
<path style="fill:#370d6e; stroke:none;" d="M583 798L583 799C594.198 807.135 607.091 813.336 619 820.397C624.178 823.467 628.99 827.567 635 825L635 823C622.497 817.612 610.819 809.597 599 802.85C593.869 799.921 588.875 795.255 583 798z"/>
<path style="fill:#ffffff; stroke:none;" d="M1028 801L1038 802C1034.75 798.863 1031.46 797.693 1028 801z"/>
<path style="fill:#45108a; stroke:none;" d="M637 804C639.682 809.164 646.065 811.87 651 814.716L682 832.579C687.277 835.604 691.92 839.61 698 837L698 835C683.442 828.727 669.788 819.12 656 811.281C650.289 808.034 643.795 802.359 637 804z"/>
<path style="fill:#a56ef4; stroke:none;" d="M1050 816L1050 817L1035 812C1040.82 828.716 1060.85 815.598 1070 810L1070 809L1064 809C1061.43 794.075 1030.48 809.099 1050 816z"/>
<path style="fill:#ffffff; stroke:none;" d="M1061 811C1056.36 796.321 1040.35 817.169 1055.98 813.125C1057.72 812.673 1059.38 811.757 1061 811z"/>
<path style="fill:#370d6e; stroke:none;" d="M330 809L330 811C353.773 822.099 376.302 837.402 399 850.576C405.032 854.076 417.829 865.095 424 859C401.631 847.095 379.973 833.628 358 821C350.063 816.439 339.515 806.964 330 809z"/>
<path style="fill:#45108a; stroke:none;" d="M626 810C633.733 822.341 658.416 831.126 671 838.281C676.567 841.446 681.594 845.893 688 843C677.343 831.465 657.612 824.225 644 816.421C638.287 813.146 632.834 808.727 626 810z"/>
<path style="fill:#584289; stroke:none;" d="M469 835L485 830L484 811C468.36 814.618 469 820.414 469 835z"/>
<path style="fill:#370d6e; stroke:none;" d="M320 815L320 817C341.865 829.895 364.11 842.155 386 855.011C393.469 859.397 404.025 868.651 413 867L413 865C391.225 850.637 367.563 838.671 345 825.576C338.38 821.733 327.8 812.267 320 815z"/>
<path style="fill:#503a81; stroke:none;" d="M397 813L395 831L395 832L427 839L427 820L397 813z"/>
<path style="fill:#45108a; stroke:none;" d="M751 814C752.264 818.271 754.837 819.759 759 821C759.787 815.719 755.627 814.477 751 814z"/>
<path style="fill:#a56ef4; stroke:none;" d="M1076 825C1071.39 824.748 1068.15 823.764 1067 819C1069.31 820.414 1071.62 821.848 1074 823.136C1078.46 825.546 1088.71 824.567 1083.24 817.394C1079.17 812.044 1063.74 812.17 1062.38 820.014C1061.2 826.8 1072.63 830.175 1076 825z"/>
<path style="fill:#ae59cb; stroke:none;" d="M469.667 815.333L470.333 815.667L469.667 815.333z"/>
<path style="fill:#6c569d; stroke:none;" d="M460 818L460 837C471.882 835.39 469 825.722 469 816L460 818z"/>
<path style="fill:#c442e0; stroke:none;" d="M429 817L429 818L446 818L429 817z"/>
<path style="fill:#ffffff; stroke:none;" d="M1071 817L1071 818L1080 822L1081 821L1081 819L1071 817z"/>
<path style="fill:#ae4cd8; stroke:none;" d="M414 818L414 819L417 819L414 818z"/>
<path style="fill:#826bb3; stroke:none;" d="M446 820L446 839L460 838L460 818L446 820z"/>
<path style="fill:#370d6e; stroke:none;" d="M459 869L459 871C466.658 875.076 479.276 886.726 488 883L467 871L467 869C487.147 863.074 507.872 846.636 526 835.989C532.023 832.452 542.487 823.39 549.576 823.287C557.431 823.173 571.481 834.7 578 839L579 839L583 837C576.349 831.221 558.884 818.859 550 818.488C541.955 818.151 530.774 827.983 524 831.85C502.519 844.112 481.405 858.539 459 869z"/>
<path style="fill:#c274dd; stroke:none;" d="M447 819L447 820L454 820L447 819z"/>
<path style="fill:#370d6e; stroke:none;" d="M309 821L309 823C321.533 829.601 333.828 836.952 346 844.201C350.786 847.05 356.232 851.71 361 847C349.734 840.356 338.253 834.065 327 827.397C321.271 824.002 315.911 819.559 309 821z"/>
<path style="fill:#6f589f; stroke:none;" d="M427 820L427 840L448 840L448 839L446 820L427 820z"/>
<path style="fill:#45108a; stroke:none;" d="M762 820C762.781 824.615 765.584 826.142 770 827C769.23 822.243 766.64 820.622 762 820z"/>
<path style="fill:#000000; stroke:none;" d="M467 869L467 871L506 893.231L521 900.307L543 889L517 872.397L505 866.205L494 869L494 867C508.798 862.647 523.041 849.505 539 849.059C553.698 848.647 564.057 866.824 578 867.191C586.23 867.408 596.511 857.227 604 854L564 830.15L549 823.039L525 835.989L467 869z"/>
<path style="fill:#771fc9; stroke:none;" d="M773 830L777 827L773 830z"/>
<path style="fill:#45108a; stroke:none;" d="M784 832C783.275 836.894 786.53 838.4 791 839C790.279 834.738 787.992 833.29 784 832M579 837L594 848.28L631 869L631 871C610.925 879.402 591.773 892.964 573 903.989C567.01 907.507 556.429 916.452 549.424 916.652C544.95 916.78 538.776 911.429 535 909.281L502 890.421C496.633 887.351 491.415 883.13 485 884L485 886C500.28 894.132 514.96 903.566 530 912.15C535.199 915.118 542.939 921.767 549 922.11C556.529 922.536 567.637 912.783 574 909.15C596.037 896.57 618.358 884.246 640 871L640 869L601 846.579L579 837M793 839C794.398 843.467 797.558 844.542 802 845C800.606 840.306 797.674 839.256 793 839z"/>
<path style="fill:#370d6e; stroke:none;" d="M409 841L409 842L433 854.501L454 844L454 843L425 843L425 844L444 844L432.424 849.547L409 841z"/>
<path style="fill:#000000; stroke:none;" d="M420 843L420 844C430.888 849.083 432.931 850.168 444 845L420 843z"/>
<path style="fill:#45108a; stroke:none;" d="M804 845C804.829 849.833 808.285 851.777 813 851C810.823 847.033 808.493 845.502 804 845z"/>
<path style="fill:#a56ef4; stroke:none;" d="M494 867L494 869L495 870L504.576 866.453L520 874.719L557 897L550 900L550 902C561.407 902.681 570.658 891.8 577.559 884.633C580.702 881.37 588.304 879.217 584.968 873.184C581.936 867.702 572.241 864.543 567 861.576C559.936 857.576 552.001 851.13 544 849.39C536.312 847.719 531.739 851.476 525 854.006C521.44 855.343 517.566 854.826 514 856.213C506.936 858.96 500.955 864.003 494 867z"/>
<path style="fill:#000000; stroke:none;" d="M529 857C538.446 854.502 550.263 857.364 555 867L570 873L571 873L574 871L574 869C563.135 863.927 539.164 841.215 529 857z"/>
<path style="fill:#a56ef4; stroke:none;" d="M813 866L828 863L826 873L830 875C833.544 862.418 837.683 863 850 863C846.449 857.523 833.958 860 828 860L828 859L837 855L837 853C829.502 851.983 816.451 859.342 813 866z"/>
<path style="fill:#53377a; stroke:none;" d="M552 853L553 854L552 853z"/>
<path style="fill:#ffffff; stroke:none;" d="M579 867L579 869C581.563 870.499 585.366 872.491 585.364 875.975C585.362 880.132 580.029 881.573 577.559 883.954C570.339 890.917 561.529 902.103 550 902L550 900L557 897C545.354 883.405 532.986 893.094 521 901C526.877 906.107 541.102 916.49 549 916.933C555.824 917.316 566.21 908.473 572 905.15C591.703 893.84 611.434 882.539 631 871L631 869C624.064 864.909 611.213 854.018 603 854.607C594.899 855.187 586.397 863.812 579 867z"/>
<path style="fill:#684599; stroke:none;" d="M518.667 857.333L519.333 857.667L518.667 857.333z"/>
<path style="fill:#000000; stroke:none;" d="M507 863L507 864C522.925 872.388 543.608 893.349 560 878C550.154 871.506 533.13 857.437 521 857.591C515.825 857.657 511.51 860.895 507 863z"/>
<path style="fill:#684599; stroke:none;" d="M522.667 857.333L523.333 857.667L522.667 857.333z"/>
<path style="fill:#6c48a0; stroke:none;" d="M535 857L535 858L538 858L535 857z"/>
<path style="fill:#000000; stroke:none;" d="M534 858C537.159 862.921 545.172 867.264 551 867L551 865L534 858z"/>
<path style="fill:#4e3473; stroke:none;" d="M566 861L567 862L566 861z"/>
<path style="fill:#a56ef4; stroke:none;" d="M850 866L857 866L857 864L850 866M832 875L832 877C838.998 877.945 845.265 872.511 851 869C845.286 864.761 837.161 871.956 832 875M851 871L852 874C849.076 874.86 843.46 876.478 842.921 880.13C842.15 885.355 848.854 884.051 851 882L847 881L862 876L860 873L864 871C860.266 867.469 855.599 869.963 851 871z"/>
<path style="fill:#000000; stroke:none;" d="M554 871C558.104 873.417 562.491 876.891 567 874C562.971 871.649 558.429 868.3 554 871z"/>
<path style="fill:#ffffff; stroke:none;" d="M571 872L571 873C574.321 876.031 574.635 877.836 573 882C584.073 878.492 581.152 867.789 571 872z"/>
<path style="fill:#370d6e; stroke:none;" d="M446 877C454.334 884.241 468.486 892.672 479 896L481 892C472.555 887.02 455.718 872.557 446 877z"/>
<path style="fill:#ffffff; stroke:none;" d="M564 876L571 879C569.715 875.344 567.573 875.129 564 876M547 886C551.502 889.912 569.124 899.338 570.824 886.908C571.196 884.188 567.916 882.373 565.985 881.212C558.932 876.973 553.053 882.007 547 886z"/>
<path style="fill:#a56ef4; stroke:none;" d="M868 893C866.203 890.193 861.281 889.877 860.207 886.826C856.824 877.218 874.701 887.424 876 888C879.872 867.17 838.025 886.809 860.999 892.467C863.291 893.031 865.659 892.98 868 893z"/>
<path style="fill:#3d0e7b; stroke:none;" d="M436 884C458.559 897.304 481.277 910.394 504 923.421C510.918 927.387 521.931 937.347 530 934L530 932C506.652 919.573 483.877 905.702 461 892.424C454.968 888.924 442.171 877.905 436 884z"/>
<path style="fill:#a56ef4; stroke:none;" d="M867 897L889 894L889 896L878 903C887.313 905.269 900.945 892.382 886 890L886 889L892 886C886.43 880.838 871.131 892.178 867 897z"/>
<path style="fill:#370d6e; stroke:none;" d="M425 889C434.912 898.281 450.188 904.551 462 911.281C467.491 914.41 471.544 918.004 478 916L478 914C465.575 908.646 453.626 900.723 442 893.799C436.499 890.524 431.395 886.112 425 889z"/>
<path style="fill:#45108a; stroke:none;" d="M479 897C493.238 904.499 507.171 912.965 521 921.201C527.143 924.859 533.693 930.716 541 928L541 926C525.185 918.616 510.159 908.663 495 899.999C490.797 897.597 481.459 889.668 479 897z"/>
<path style="fill:#a56ef4; stroke:none;" d="M903 913L893 905C897.108 906.3 903.628 912.154 907.941 910.698C917.395 907.504 906.025 899.319 901 899.133C895.368 898.924 884.16 903.783 891.318 910.486C894.385 913.358 899.121 912.989 903 913z"/>
<path style="fill:#45108a; stroke:none;" d="M600 902C600.827 906.811 604.338 908.547 609 908C606.823 904.033 604.493 902.502 600 902z"/>
<path style="fill:#ffffff; stroke:none;" d="M898 902L898 903L907 908C906.758 902.624 902.703 902.114 898 902z"/>
<path style="fill:#45108a; stroke:none;" d="M610 908C611.264 912.271 613.837 913.759 618 915C618.787 909.719 614.627 908.477 610 908z"/>
<path style="fill:#a56ef4; stroke:none;" d="M903 918L925 915L925 917L914 924C924.051 926.427 937.352 911.851 921 911C920.105 903.916 905.36 915.027 903 918z"/>
<path style="fill:#771fc9; stroke:none;" d="M622 918L625 915L622 918z"/>
<path style="fill:#45108a; stroke:none;" d="M631 921C633.005 925.064 635.536 926.503 640 927C639.158 922.09 635.754 920.49 631 921M642 927C643.406 931.553 646.445 932.694 651 933C649.336 928.55 646.614 927.311 642 927M652 933L660 940C660.791 934.66 656.722 933.317 652 933z"/>
<path style="fill:#a56ef4; stroke:none;" d="M660 952L660 954C666.55 957.058 681.934 966.963 684 954C698.036 953.661 691.117 940.836 681 940.836C674.598 940.836 665.222 948.555 660 952z"/>
<path style="fill:#ffffff; stroke:none;" d="M676 948C680.613 950.676 683.882 952.039 689 950C685.098 945.422 680.777 943.664 676 948M667 952C670.599 956.184 674.681 957.525 680 956L680 954C675.257 950.917 672.391 950.084 667 952z"/>
<path style="fill:#a56ef4; stroke:none;" d="M698 971L687 964C692.351 963.692 697.835 969.859 702.772 968.153C707.128 966.647 705.842 960.97 702.852 958.858C699.543 956.521 693.815 956.507 690.004 957.394C685.321 958.485 680.661 963.904 685.434 968.005C688.819 970.913 693.805 970.965 698 971z"/>
<path style="fill:#ffffff; stroke:none;" d="M692 960L692 961L702 965C700.444 960.074 696.664 960.042 692 960z"/>
<path style="fill:#a56ef4; stroke:none;" d="M712 984L734 972L734 970L723 973C719.433 965.864 700.355 964.172 701.466 974.96C701.927 979.437 709.173 981.027 712 984z"/>
<path style="fill:#ffffff; stroke:none;" d="M712.005 970.627C704.297 971.854 707.11 979.004 713.985 977.59C721.119 976.123 718.34 969.619 712.005 970.627z"/>
<path style="fill:#a56ef4; stroke:none;" d="M717 985L717 987L741 983L735 980C734.118 972.481 720.546 982.883 717 985M737.015 985.653C732.1 987.244 729.537 992.625 734.229 996.262C738.135 999.289 744.585 999.021 748.981 997.387C753.775 995.604 755.986 989.497 750.852 986.457C747.279 984.341 740.881 984.401 737.015 985.653z"/>
<path style="fill:#ffffff; stroke:none;" d="M750 990C748.303 989.184 746.879 988.443 744.975 988.218C730.56 986.516 743.291 1002.78 750 990z"/>
<path style="fill:#a56ef4; stroke:none;" d="M758 995.469C743.257 998.261 753.684 1010.98 764.999 1008.66C778.997 1005.78 768.407 993.498 758 995.469z"/>
<path style="fill:#ffffff; stroke:none;" d="M754 1004C759.582 1006.69 765.979 1006.81 768 1000C762.207 997.937 757.023 997.989 754 1004z"/>
<path style="fill:#a56ef4; stroke:none;" d="M765 1012L765 1014L786 1011L775 1018L775 1020L796 1016L785 1024L785 1026C796.047 1028.03 808.146 1013.37 791 1013C788.495 998.442 772.047 1008.71 765 1012z"/>
</svg>
